<svg xmlns="http://www.w3.org/2000/svg" width="512" height="512" viewBox="0 0 512 512">
<path d="M 305.76 511.43 L 304.74 511.49 L 303.71 511.49 L 302.69 511.49 L 301.66 511.49 L 300.63 511.49 L 299.61 511.49 L 298.58 511.49 L 297.56 511.49 L 296.53 511.39 L 295.90 510.97 L 295.50 510.66 L 294.50 509.95 L 294.48 509.93 L 293.45 508.96 L 293.42 508.92 L 292.73 507.90 L 292.42 507.50 L 292.00 506.87 L 291.69 505.84 L 291.40 505.21 L 291.20 504.82 L 291.00 503.79 L 290.93 502.77 L 290.93 501.74 L 291.00 500.71 L 291.20 499.69 L 291.40 499.30 L 291.69 498.66 L 292.00 497.64 L 292.42 497.00 L 292.73 496.61 L 293.20 495.58 L 293.45 495.29 L 293.95 494.56 L 294.48 493.75 L 294.68 493.53 L 295.18 492.51 L 295.50 492.11 L 295.96 491.48 L 296.51 490.45 L 296.53 490.43 L 297.08 489.43 L 297.56 488.69 L 297.79 488.40 L 298.23 487.37 L 298.58 486.89 L 298.96 486.35 L 299.34 485.32 L 299.61 484.97 L 300.02 484.30 L 300.40 483.27 L 300.63 482.98 L 301.07 482.24 L 301.46 481.22 L 301.66 480.96 L 302.08 480.19 L 302.39 479.17 L 302.69 478.70 L 303.03 478.14 L 303.34 477.11 L 303.71 476.45 L 303.95 476.09 L 304.26 475.06 L 304.64 474.04 L 304.74 473.90 L 305.16 473.01 L 305.40 471.98 L 305.76 471.25 L 305.95 470.96 L 306.25 469.93 L 306.48 468.91 L 306.79 468.24 L 306.98 467.88 L 307.27 466.85 L 307.50 465.83 L 307.82 465.03 L 307.93 464.80 L 308.23 463.78 L 308.39 462.75 L 308.63 461.72 L 308.84 461.22 L 309.06 460.70 L 309.28 459.67 L 309.40 458.65 L 309.57 457.62 L 309.87 456.60 L 309.87 456.59 L 310.17 455.57 L 310.32 454.54 L 310.41 453.52 L 310.51 452.49 L 310.65 451.46 L 310.87 450.44 L 310.89 450.37 L 311.11 449.41 L 311.21 448.38 L 311.29 447.36 L 311.35 446.33 L 311.40 445.31 L 311.45 444.28 L 311.48 443.25 L 311.51 442.23 L 311.53 441.20 L 311.55 440.18 L 311.58 439.15 L 311.59 438.12 L 311.56 437.10 L 311.54 436.07 L 311.53 435.05 L 311.51 434.02 L 311.48 432.99 L 311.43 431.97 L 311.39 430.94 L 311.34 429.92 L 311.28 428.89 L 311.21 427.86 L 311.07 426.84 L 310.89 426.04 L 310.84 425.81 L 310.64 424.79 L 310.51 423.76 L 310.42 422.73 L 310.33 421.71 L 310.19 420.68 L 309.94 419.66 L 309.87 419.46 L 309.63 418.63 L 309.45 417.60 L 309.34 416.58 L 309.18 415.55 L 308.84 414.53 L 308.84 414.53 L 308.50 413.50 L 308.34 412.47 L 308.07 411.45 L 307.82 411.17 L 307.53 411.45 L 306.79 412.26 L 306.60 412.47 L 306.10 413.50 L 305.76 413.90 L 305.31 414.53 L 304.74 415.31 L 304.51 415.55 L 303.87 416.58 L 303.71 416.75 L 303.10 417.60 L 302.69 418.08 L 302.20 418.63 L 301.66 419.23 L 301.26 419.66 L 300.63 420.34 L 300.30 420.68 L 299.61 421.46 L 299.36 421.71 L 298.58 422.49 L 298.33 422.73 L 297.56 423.43 L 297.22 423.76 L 296.53 424.40 L 296.12 424.79 L 295.50 425.34 L 294.93 425.81 L 294.48 426.21 L 293.61 426.84 L 293.45 426.99 L 292.42 427.62 L 292.15 427.86 L 291.40 428.38 L 290.61 428.89 L 290.37 429.09 L 289.35 429.57 L 288.90 429.92 L 288.32 430.33 L 287.29 430.71 L 286.99 430.94 L 286.27 431.36 L 285.24 431.73 L 284.90 431.97 L 284.22 432.37 L 283.19 432.62 L 282.40 432.99 L 282.16 433.15 L 281.14 433.49 L 280.11 433.76 L 279.45 434.02 L 279.09 434.18 L 278.06 434.37 L 277.03 434.42 L 276.01 434.40 L 274.98 434.25 L 274.37 434.02 L 273.96 433.85 L 272.93 433.53 L 271.90 433.10 L 271.79 432.99 L 270.88 432.43 L 270.35 431.97 L 269.85 431.51 L 269.30 430.94 L 268.83 430.40 L 268.41 429.92 L 267.88 428.89 L 267.80 428.79 L 267.34 427.86 L 267.12 426.84 L 266.84 425.81 L 266.77 425.54 L 266.61 424.79 L 266.60 423.76 L 266.75 422.73 L 266.77 422.66 L 267.04 421.71 L 267.26 420.68 L 267.47 419.66 L 267.80 418.89 L 267.94 418.63 L 268.25 417.60 L 268.45 416.58 L 268.83 415.63 L 268.88 415.55 L 269.22 414.53 L 269.37 413.50 L 269.56 412.47 L 269.85 411.65 L 269.94 411.45 L 270.23 410.42 L 270.39 409.39 L 270.52 408.37 L 270.72 407.34 L 270.88 406.84 L 271.04 406.32 L 271.24 405.29 L 271.36 404.26 L 271.46 403.24 L 271.54 402.21 L 271.65 401.19 L 271.82 400.16 L 271.90 399.75 L 272.03 399.13 L 272.17 398.11 L 272.26 397.08 L 272.30 396.06 L 272.33 395.03 L 272.36 394.00 L 272.39 392.98 L 272.41 391.95 L 272.41 390.93 L 272.41 389.90 L 272.40 388.87 L 272.39 387.85 L 272.38 386.82 L 272.36 385.80 L 272.31 384.77 L 272.24 383.74 L 272.16 382.72 L 272.05 381.69 L 271.91 380.67 L 271.90 380.64 L 271.75 379.64 L 271.58 378.61 L 271.46 377.59 L 271.38 376.56 L 271.29 375.54 L 271.16 374.51 L 270.94 373.48 L 270.88 373.32 L 270.62 372.46 L 270.44 371.43 L 270.32 370.40 L 270.15 369.38 L 269.86 368.35 L 269.85 368.34 L 269.54 367.33 L 269.35 366.30 L 269.16 365.27 L 268.83 364.33 L 268.78 364.25 L 268.45 363.22 L 268.28 362.20 L 268.05 361.17 L 267.80 360.66 L 267.55 360.14 L 267.29 359.12 L 267.05 358.09 L 266.77 357.52 L 266.55 357.07 L 266.28 356.04 L 266.03 355.01 L 265.75 354.51 L 265.46 353.99 L 265.19 352.96 L 264.79 351.94 L 264.72 351.84 L 264.30 350.91 L 264.05 349.88 L 263.70 349.19 L 263.49 348.86 L 263.14 347.83 L 262.67 346.83 L 262.65 346.81 L 262.18 345.78 L 261.82 344.75 L 261.64 344.51 L 261.23 343.73 L 260.92 342.70 L 260.62 342.24 L 260.26 341.68 L 259.91 340.65 L 259.59 340.18 L 259.23 339.62 L 258.88 338.60 L 258.57 338.13 L 258.21 337.57 L 257.86 336.55 L 257.54 336.10 L 257.16 335.52 L 256.74 334.49 L 256.51 334.21 L 256.05 333.47 L 255.55 332.44 L 255.49 332.37 L 254.96 331.41 L 254.46 330.55 L 254.32 330.39 L 253.85 329.36 L 253.43 328.78 L 253.09 328.34 L 252.63 327.31 L 252.41 327.05 L 251.92 326.28 L 251.38 325.41 L 251.25 325.26 L 250.72 324.23 L 250.36 323.81 L 250.00 324.23 L 249.78 325.26 L 249.67 326.28 L 249.51 327.31 L 249.33 328.14 L 249.28 328.34 L 249.07 329.36 L 248.93 330.39 L 248.82 331.41 L 248.72 332.44 L 248.57 333.47 L 248.32 334.49 L 248.30 334.53 L 248.05 335.52 L 247.89 336.55 L 247.77 337.57 L 247.62 338.60 L 247.38 339.62 L 247.28 339.89 L 247.04 340.65 L 246.85 341.68 L 246.73 342.70 L 246.55 343.73 L 246.25 344.63 L 246.20 344.75 L 245.90 345.78 L 245.74 346.81 L 245.58 347.83 L 245.27 348.86 L 245.23 348.94 L 244.89 349.88 L 244.70 350.91 L 244.49 351.94 L 244.20 352.68 L 244.06 352.96 L 243.78 353.99 L 243.61 355.01 L 243.27 356.04 L 243.17 356.20 L 242.81 357.07 L 242.61 358.09 L 242.32 359.12 L 242.15 359.45 L 241.84 360.14 L 241.60 361.17 L 241.26 362.20 L 241.12 362.43 L 240.76 363.22 L 240.53 364.25 L 240.12 365.27 L 240.10 365.30 L 239.67 366.30 L 239.40 367.33 L 239.07 367.92 L 238.81 368.35 L 238.51 369.38 L 238.09 370.40 L 238.04 370.46 L 237.60 371.43 L 237.27 372.46 L 237.02 372.82 L 236.64 373.48 L 236.33 374.51 L 235.99 375.07 L 235.69 375.54 L 235.37 376.56 L 234.97 377.22 L 234.70 377.59 L 234.33 378.61 L 233.94 379.24 L 233.65 379.64 L 233.29 380.67 L 232.91 381.23 L 232.58 381.69 L 232.17 382.72 L 231.89 383.08 L 231.45 383.74 L 230.97 384.77 L 230.86 384.89 L 230.34 385.80 L 229.84 386.58 L 229.63 386.82 L 229.15 387.85 L 228.81 388.26 L 228.37 388.87 L 227.78 389.86 L 227.75 389.90 L 227.16 390.93 L 226.76 391.41 L 226.32 391.95 L 225.73 392.82 L 225.58 392.98 L 225.02 394.00 L 224.71 394.36 L 224.19 395.03 L 223.68 395.65 L 223.31 396.06 L 222.65 396.96 L 222.54 397.08 L 221.87 398.11 L 221.63 398.37 L 221.02 399.13 L 220.60 399.59 L 220.09 400.16 L 219.58 400.73 L 219.15 401.19 L 218.55 401.87 L 218.23 402.21 L 217.52 403.01 L 217.30 403.24 L 216.50 404.10 L 216.34 404.26 L 215.47 405.17 L 215.35 405.29 L 214.44 406.27 L 214.40 406.32 L 213.47 407.34 L 213.42 407.39 L 212.53 408.37 L 212.39 408.51 L 211.57 409.39 L 211.37 409.60 L 210.60 410.42 L 210.34 410.68 L 209.63 411.45 L 209.31 411.79 L 208.75 412.47 L 208.29 412.99 L 207.84 413.50 L 207.26 414.20 L 206.96 414.53 L 206.24 415.51 L 206.19 415.55 L 205.49 416.58 L 205.21 416.90 L 204.70 417.60 L 204.18 418.33 L 203.92 418.63 L 203.39 419.66 L 203.16 419.92 L 202.63 420.68 L 202.13 421.39 L 201.86 421.71 L 201.46 422.73 L 201.11 423.24 L 200.74 423.76 L 200.36 424.79 L 200.08 425.15 L 199.65 425.81 L 199.25 426.84 L 199.05 427.11 L 198.64 427.86 L 198.34 428.89 L 198.03 429.44 L 197.75 429.92 L 197.47 430.94 L 197.11 431.97 L 197.00 432.16 L 196.65 432.99 L 196.44 434.02 L 196.19 435.05 L 195.98 435.60 L 195.78 436.07 L 195.54 437.10 L 195.43 438.12 L 195.28 439.15 L 195.08 440.18 L 194.95 440.73 L 194.84 441.20 L 194.67 442.23 L 194.58 443.25 L 194.53 444.28 L 194.49 445.31 L 194.48 446.33 L 194.48 447.36 L 194.49 448.38 L 194.52 449.41 L 194.56 450.44 L 194.63 451.46 L 194.76 452.49 L 194.95 453.50 L 194.95 453.52 L 195.20 454.54 L 195.35 455.57 L 195.47 456.59 L 195.61 457.62 L 195.88 458.65 L 195.98 458.83 L 196.29 459.67 L 196.50 460.70 L 196.73 461.72 L 197.00 462.33 L 197.21 462.75 L 197.47 463.78 L 197.68 464.80 L 198.03 465.48 L 198.25 465.83 L 198.57 466.85 L 198.96 467.88 L 199.05 468.00 L 199.49 468.91 L 199.75 469.93 L 200.08 470.47 L 200.38 470.96 L 200.73 471.98 L 201.11 472.56 L 201.42 473.01 L 201.78 474.04 L 202.13 474.57 L 202.47 475.06 L 202.81 476.09 L 203.16 476.55 L 203.55 477.11 L 204.04 478.14 L 204.18 478.30 L 204.72 479.17 L 205.21 479.95 L 205.41 480.19 L 205.88 481.22 L 206.24 481.68 L 206.64 482.24 L 207.26 483.26 L 207.27 483.27 L 207.91 484.30 L 208.29 484.74 L 208.75 485.32 L 209.31 486.17 L 209.48 486.35 L 210.05 487.37 L 210.34 487.72 L 210.85 488.40 L 211.37 489.06 L 211.70 489.43 L 212.39 490.39 L 212.45 490.45 L 213.14 491.48 L 213.42 491.77 L 214.01 492.51 L 214.44 493.01 L 214.89 493.53 L 215.47 494.28 L 215.73 494.56 L 216.33 495.58 L 216.50 495.76 L 217.04 496.61 L 217.52 497.57 L 217.58 497.64 L 217.97 498.66 L 218.11 499.69 L 218.21 500.71 L 218.26 501.74 L 218.19 502.77 L 218.07 503.79 L 217.90 504.82 L 217.52 505.54 L 217.32 505.84 L 216.92 506.87 L 216.50 507.41 L 216.10 507.90 L 215.47 508.60 L 215.15 508.92 L 214.44 509.54 L 213.95 509.95 L 213.42 510.37 L 212.39 510.78 L 212.10 510.97 L 211.37 511.35 L 210.34 511.48 L 209.31 511.49 L 208.29 511.49 L 207.26 511.49 L 206.24 511.49 L 205.21 511.43 L 204.18 511.04 L 204.10 510.97 L 203.16 510.51 L 202.13 510.03 L 202.04 509.95 L 201.11 509.43 L 200.22 508.92 L 200.08 508.80 L 199.05 508.34 L 198.36 507.90 L 198.03 507.63 L 197.00 507.23 L 196.50 506.87 L 195.98 506.50 L 194.95 506.10 L 194.63 505.84 L 193.92 505.40 L 192.90 504.92 L 192.78 504.82 L 191.87 504.31 L 190.97 503.79 L 190.85 503.68 L 189.82 503.18 L 189.24 502.77 L 188.79 502.42 L 187.77 501.97 L 187.49 501.74 L 186.74 501.26 L 185.85 500.71 L 185.72 500.60 L 184.69 500.10 L 184.10 499.69 L 183.66 499.34 L 182.64 498.88 L 182.38 498.66 L 181.61 498.18 L 180.68 497.64 L 180.59 497.55 L 179.56 497.03 L 179.00 496.61 L 178.53 496.24 L 177.51 495.65 L 177.44 495.58 L 176.48 495.01 L 175.85 494.56 L 175.45 494.23 L 174.43 493.70 L 174.24 493.53 L 173.40 492.99 L 172.73 492.51 L 172.38 492.21 L 171.35 491.73 L 171.06 491.48 L 170.32 490.98 L 169.55 490.45 L 169.30 490.23 L 168.27 489.72 L 167.93 489.43 L 167.25 488.92 L 166.56 488.40 L 166.22 488.10 L 165.19 487.50 L 165.06 487.37 L 164.17 486.78 L 163.63 486.35 L 163.14 485.94 L 162.24 485.32 L 162.12 485.21 L 161.09 484.61 L 160.73 484.30 L 160.06 483.80 L 159.32 483.27 L 159.04 483.02 L 158.01 482.44 L 157.80 482.24 L 156.99 481.63 L 156.51 481.22 L 155.96 480.75 L 155.26 480.19 L 154.93 479.89 L 153.91 479.17 L 153.90 479.17 L 152.88 478.47 L 152.52 478.14 L 151.86 477.60 L 151.28 477.11 L 150.83 476.73 L 149.93 476.09 L 149.80 475.97 L 148.78 475.31 L 148.51 475.06 L 147.75 474.44 L 147.32 474.04 L 146.73 473.51 L 146.17 473.01 L 145.70 472.59 L 144.98 471.98 L 144.67 471.69 L 143.75 470.96 L 143.65 470.86 L 142.62 470.10 L 142.44 469.93 L 141.60 469.22 L 141.27 468.91 L 140.57 468.32 L 140.08 467.88 L 139.54 467.40 L 138.95 466.85 L 138.52 466.43 L 137.88 465.83 L 137.49 465.45 L 136.79 464.80 L 136.46 464.48 L 135.70 463.78 L 135.44 463.51 L 134.64 462.75 L 134.41 462.53 L 133.52 461.72 L 133.39 461.59 L 132.42 460.70 L 132.36 460.63 L 131.33 459.80 L 131.20 459.67 L 130.31 458.76 L 130.20 458.65 L 129.28 457.67 L 129.23 457.62 L 128.28 456.59 L 128.26 456.57 L 127.32 455.57 L 127.23 455.47 L 126.35 454.54 L 126.20 454.39 L 125.38 453.52 L 125.18 453.31 L 124.39 452.49 L 124.15 452.25 L 123.43 451.46 L 123.13 451.15 L 122.51 450.44 L 122.10 449.99 L 121.58 449.41 L 121.07 448.85 L 120.65 448.38 L 120.05 447.70 L 119.73 447.36 L 119.02 446.51 L 118.85 446.33 L 118.07 445.31 L 118.00 445.23 L 117.23 444.28 L 116.97 444.01 L 116.35 443.25 L 115.94 442.80 L 115.46 442.23 L 114.92 441.57 L 114.59 441.20 L 113.89 440.24 L 113.83 440.18 L 113.15 439.15 L 112.87 438.84 L 112.32 438.12 L 111.84 437.53 L 111.47 437.10 L 110.81 436.13 L 110.76 436.07 L 110.12 435.05 L 109.79 434.66 L 109.30 434.02 L 108.76 433.25 L 108.53 432.99 L 107.98 431.97 L 107.74 431.69 L 107.21 430.94 L 106.71 430.22 L 106.44 429.92 L 105.95 428.89 L 105.68 428.57 L 105.19 427.86 L 104.66 427.04 L 104.48 426.84 L 104.00 425.81 L 103.63 425.33 L 103.23 424.79 L 102.75 423.76 L 102.61 423.60 L 102.08 422.73 L 101.58 421.89 L 101.43 421.71 L 100.98 420.68 L 100.55 420.04 L 100.26 419.66 L 99.86 418.63 L 99.53 418.16 L 99.16 417.60 L 98.79 416.58 L 98.50 416.18 L 98.11 415.55 L 97.74 414.53 L 97.47 414.17 L 97.07 413.50 L 96.74 412.47 L 96.45 412.03 L 96.09 411.45 L 95.78 410.42 L 95.42 409.83 L 95.13 409.39 L 94.84 408.37 L 94.40 407.48 L 94.29 407.34 L 93.89 406.32 L 93.53 405.29 L 93.37 405.05 L 92.98 404.26 L 92.74 403.24 L 92.34 402.41 L 92.21 402.21 L 91.86 401.19 L 91.58 400.16 L 91.32 399.64 L 91.06 399.13 L 90.80 398.11 L 90.52 397.08 L 90.29 396.65 L 90.01 396.06 L 89.78 395.03 L 89.55 394.00 L 89.27 393.34 L 89.08 392.98 L 88.80 391.95 L 88.63 390.93 L 88.33 389.90 L 88.24 389.72 L 87.93 388.87 L 87.74 387.85 L 87.57 386.82 L 87.30 385.80 L 87.21 385.59 L 86.94 384.77 L 86.76 383.74 L 86.63 382.72 L 86.46 381.69 L 86.19 380.72 L 86.17 380.67 L 85.90 379.64 L 85.74 378.61 L 85.64 377.59 L 85.54 376.56 L 85.40 375.54 L 85.16 374.52 L 85.16 374.51 L 84.92 373.48 L 84.80 372.46 L 84.72 371.43 L 84.66 370.40 L 84.59 369.38 L 84.51 368.35 L 84.45 367.33 L 84.36 366.30 L 84.27 365.27 L 84.14 364.25 L 84.14 364.21 L 84.03 363.22 L 83.97 362.20 L 83.92 361.17 L 83.88 360.14 L 83.84 359.12 L 83.83 358.09 L 83.83 357.07 L 83.83 356.04 L 83.83 355.01 L 83.84 353.99 L 83.87 352.96 L 83.91 351.94 L 83.96 350.91 L 84.01 349.88 L 84.09 348.86 L 84.14 348.49 L 84.22 347.83 L 84.32 346.81 L 84.41 345.78 L 84.48 344.75 L 84.55 343.73 L 84.62 342.70 L 84.67 341.68 L 84.74 340.65 L 84.83 339.62 L 84.96 338.60 L 85.16 337.70 L 85.20 337.57 L 85.41 336.55 L 85.54 335.52 L 85.64 334.49 L 85.73 333.47 L 85.87 332.44 L 86.08 331.41 L 86.19 331.08 L 86.38 330.39 L 86.56 329.36 L 86.70 328.34 L 86.82 327.31 L 87.04 326.28 L 87.21 325.78 L 87.40 325.26 L 87.61 324.23 L 87.75 323.21 L 87.93 322.18 L 88.24 321.23 L 88.28 321.15 L 88.59 320.13 L 88.75 319.10 L 88.93 318.08 L 89.27 317.16 L 89.32 317.05 L 89.65 316.02 L 89.82 315.00 L 90.05 313.97 L 90.29 313.45 L 90.53 312.95 L 90.79 311.92 L 91.01 310.89 L 91.32 310.22 L 91.51 309.87 L 91.79 308.84 L 92.00 307.82 L 92.34 307.01 L 92.47 306.79 L 92.80 305.76 L 92.99 304.74 L 93.37 303.79 L 93.42 303.71 L 93.82 302.69 L 94.07 301.66 L 94.40 301.01 L 94.62 300.63 L 94.93 299.61 L 95.25 298.58 L 95.42 298.31 L 95.79 297.56 L 96.03 296.53 L 96.45 295.60 L 96.52 295.50 L 96.91 294.48 L 97.18 293.45 L 97.47 292.93 L 97.77 292.42 L 98.08 291.40 L 98.50 290.57 L 98.64 290.37 L 99.03 289.35 L 99.46 288.32 L 99.53 288.23 L 99.98 287.29 L 100.31 286.27 L 100.55 285.91 L 100.93 285.24 L 101.22 284.22 L 101.58 283.58 L 101.84 283.19 L 102.16 282.16 L 102.61 281.37 L 102.79 281.14 L 103.18 280.11 L 103.63 279.32 L 103.81 279.09 L 104.21 278.06 L 104.66 277.26 L 104.83 277.03 L 105.23 276.01 L 105.68 275.20 L 105.85 274.98 L 106.26 273.96 L 106.71 273.15 L 106.89 272.93 L 107.28 271.90 L 107.74 271.14 L 107.95 270.88 L 108.37 269.85 L 108.76 269.29 L 109.10 268.83 L 109.49 267.80 L 109.79 267.42 L 110.22 266.77 L 110.67 265.75 L 110.81 265.58 L 111.31 264.72 L 111.84 263.76 L 111.90 263.70 L 112.41 262.67 L 112.87 261.94 L 113.10 261.64 L 113.52 260.62 L 113.89 260.12 L 114.28 259.59 L 114.79 258.57 L 114.92 258.42 L 115.46 257.54 L 115.94 256.80 L 116.18 256.51 L 116.64 255.49 L 116.97 255.08 L 117.41 254.46 L 117.98 253.43 L 118.00 253.41 L 118.58 252.41 L 119.02 251.78 L 119.33 251.38 L 119.78 250.36 L 120.05 250.04 L 120.53 249.33 L 121.07 248.52 L 121.27 248.30 L 121.79 247.28 L 122.10 246.92 L 122.59 246.25 L 123.13 245.45 L 123.32 245.23 L 123.85 244.20 L 124.15 243.85 L 124.64 243.17 L 125.18 242.38 L 125.39 242.15 L 125.91 241.12 L 126.20 240.78 L 126.70 240.10 L 127.23 239.31 L 127.44 239.07 L 127.99 238.04 L 128.26 237.74 L 128.80 237.02 L 129.28 236.40 L 129.63 235.99 L 130.28 234.97 L 130.31 234.94 L 130.97 233.94 L 131.33 233.52 L 131.82 232.91 L 132.36 232.16 L 132.60 231.89 L 133.19 230.86 L 133.39 230.65 L 133.96 229.84 L 134.41 229.29 L 134.81 228.81 L 135.44 227.88 L 135.53 227.78 L 136.16 226.76 L 136.46 226.43 L 137.02 225.73 L 137.49 225.18 L 137.91 224.71 L 138.52 223.91 L 138.74 223.68 L 139.36 222.65 L 139.54 222.46 L 140.17 221.63 L 140.57 221.17 L 141.05 220.60 L 141.60 219.92 L 141.91 219.58 L 142.62 218.55 L 142.62 218.55 L 143.33 217.52 L 143.65 217.18 L 144.19 216.50 L 144.67 215.93 L 145.09 215.47 L 145.70 214.82 L 146.09 214.44 L 146.73 213.90 L 147.38 213.42 L 147.75 213.12 L 148.78 212.77 L 149.56 212.39 L 149.80 212.24 L 150.83 211.97 L 151.86 211.88 L 152.88 211.85 L 153.91 211.89 L 154.93 211.98 L 155.96 212.27 L 156.15 212.39 L 156.99 212.78 L 158.01 213.14 L 158.34 213.42 L 159.04 213.92 L 159.65 214.44 L 160.06 214.85 L 160.65 215.47 L 161.09 215.99 L 161.51 216.50 L 161.98 217.52 L 162.12 217.70 L 162.54 218.55 L 162.73 219.58 L 162.99 220.60 L 163.14 220.98 L 163.38 221.63 L 163.59 222.65 L 163.72 223.68 L 163.94 224.71 L 164.17 225.33 L 164.33 225.73 L 164.62 226.76 L 164.80 227.78 L 165.17 228.81 L 165.19 228.86 L 165.57 229.84 L 165.76 230.86 L 166.12 231.89 L 166.22 232.03 L 166.63 232.91 L 166.85 233.94 L 167.25 234.80 L 167.36 234.97 L 167.73 235.99 L 168.11 237.02 L 168.27 237.24 L 168.70 238.04 L 169.04 239.07 L 169.30 239.45 L 169.67 240.10 L 170.05 241.12 L 170.32 241.47 L 170.77 242.15 L 171.25 243.17 L 171.35 243.29 L 171.86 244.20 L 172.38 244.98 L 172.60 245.23 L 173.13 246.25 L 173.40 246.56 L 173.93 247.28 L 174.43 247.96 L 174.73 248.30 L 175.45 249.31 L 175.47 249.33 L 176.25 250.36 L 176.48 250.60 L 177.12 251.38 L 177.51 251.79 L 178.12 252.41 L 178.53 252.82 L 179.15 253.43 L 179.56 253.84 L 180.34 253.43 L 180.24 252.41 L 180.12 251.38 L 180.04 250.36 L 179.92 249.33 L 179.75 248.30 L 179.56 247.59 L 179.47 247.28 L 179.26 246.25 L 179.14 245.23 L 179.06 244.20 L 178.98 243.17 L 178.88 242.15 L 178.74 241.12 L 178.53 240.17 L 178.51 240.10 L 178.30 239.07 L 178.17 238.04 L 178.08 237.02 L 178.01 235.99 L 177.95 234.97 L 177.88 233.94 L 177.78 232.91 L 177.64 231.89 L 177.51 231.16 L 177.45 230.86 L 177.29 229.84 L 177.18 228.81 L 177.10 227.78 L 177.04 226.76 L 177.00 225.73 L 176.96 224.71 L 176.92 223.68 L 176.86 222.65 L 176.80 221.63 L 176.72 220.60 L 176.62 219.58 L 176.51 218.55 L 176.48 218.22 L 176.42 217.52 L 176.34 216.50 L 176.28 215.47 L 176.22 214.44 L 176.18 213.42 L 176.13 212.39 L 176.10 211.37 L 176.06 210.34 L 176.04 209.31 L 176.04 208.29 L 176.03 207.26 L 176.02 206.24 L 176.01 205.21 L 176.00 204.18 L 175.99 203.16 L 175.98 202.13 L 175.98 201.11 L 175.99 200.08 L 176.00 199.05 L 176.01 198.03 L 176.02 197.00 L 176.02 195.98 L 176.03 194.95 L 176.04 193.92 L 176.06 192.90 L 176.09 191.87 L 176.13 190.85 L 176.17 189.82 L 176.22 188.79 L 176.28 187.77 L 176.34 186.74 L 176.43 185.72 L 176.48 185.16 L 176.52 184.69 L 176.63 183.66 L 176.72 182.64 L 176.81 181.61 L 176.88 180.59 L 176.93 179.56 L 176.98 178.53 L 177.02 177.51 L 177.06 176.48 L 177.13 175.45 L 177.23 174.43 L 177.38 173.40 L 177.51 172.72 L 177.58 172.38 L 177.73 171.35 L 177.85 170.32 L 177.94 169.30 L 178.01 168.27 L 178.07 167.25 L 178.17 166.22 L 178.32 165.19 L 178.53 164.24 L 178.55 164.17 L 178.77 163.14 L 178.91 162.12 L 179.01 161.09 L 179.09 160.06 L 179.19 159.04 L 179.38 158.01 L 179.56 157.37 L 179.68 156.99 L 179.89 155.96 L 180.03 154.93 L 180.13 153.91 L 180.26 152.88 L 180.49 151.86 L 180.59 151.55 L 180.79 150.83 L 180.99 149.80 L 181.12 148.78 L 181.26 147.75 L 181.51 146.73 L 181.61 146.46 L 181.85 145.70 L 182.04 144.67 L 182.16 143.65 L 182.33 142.62 L 182.64 141.67 L 182.67 141.60 L 182.99 140.57 L 183.16 139.54 L 183.32 138.52 L 183.66 137.49 L 183.66 137.48 L 184.00 136.46 L 184.17 135.44 L 184.33 134.41 L 184.69 133.41 L 184.70 133.39 L 185.06 132.36 L 185.24 131.33 L 185.47 130.31 L 185.72 129.73 L 185.92 129.28 L 186.17 128.26 L 186.34 127.23 L 186.67 126.20 L 186.74 126.08 L 187.11 125.18 L 187.31 124.15 L 187.60 123.13 L 187.77 122.82 L 188.09 122.10 L 188.31 121.07 L 188.56 120.05 L 188.79 119.58 L 189.06 119.02 L 189.31 118.00 L 189.58 116.97 L 189.82 116.51 L 190.11 115.94 L 190.36 114.92 L 190.67 113.89 L 190.85 113.59 L 191.18 112.87 L 191.42 111.84 L 191.78 110.81 L 191.87 110.68 L 192.28 109.79 L 192.52 108.76 L 192.90 108.01 L 193.07 107.74 L 193.41 106.71 L 193.73 105.68 L 193.92 105.37 L 194.29 104.66 L 194.54 103.63 L 194.95 102.75 L 195.05 102.61 L 195.45 101.58 L 195.81 100.55 L 195.98 100.32 L 196.39 99.53 L 196.66 98.50 L 197.00 97.92 L 197.28 97.47 L 197.59 96.45 L 198.03 95.51 L 198.09 95.42 L 198.54 94.40 L 198.97 93.37 L 199.05 93.27 L 199.52 92.34 L 199.89 91.32 L 200.08 91.06 L 200.50 90.29 L 200.84 89.27 L 201.11 88.88 L 201.48 88.24 L 201.80 87.21 L 202.13 86.73 L 202.49 86.19 L 202.83 85.16 L 203.16 84.69 L 203.52 84.14 L 203.87 83.11 L 204.18 82.67 L 204.57 82.08 L 204.91 81.06 L 205.21 80.63 L 205.59 80.03 L 205.98 79.01 L 206.24 78.68 L 206.68 77.98 L 207.13 76.95 L 207.26 76.80 L 207.76 75.93 L 208.29 74.93 L 208.32 74.90 L 208.85 73.88 L 209.31 73.07 L 209.50 72.85 L 209.94 71.82 L 210.34 71.28 L 210.70 70.80 L 211.14 69.77 L 211.37 69.51 L 211.86 68.75 L 212.39 67.79 L 212.46 67.72 L 212.98 66.69 L 213.42 66.07 L 213.74 65.67 L 214.17 64.64 L 214.44 64.32 L 214.94 63.62 L 215.47 62.75 L 215.61 62.59 L 216.12 61.56 L 216.50 61.09 L 216.91 60.54 L 217.47 59.51 L 217.52 59.46 L 218.11 58.48 L 218.55 57.88 L 218.89 57.46 L 219.43 56.43 L 219.58 56.28 L 220.15 55.41 L 220.60 54.82 L 220.97 54.38 L 221.52 53.35 L 221.63 53.24 L 222.21 52.33 L 222.65 51.76 L 223.02 51.30 L 223.62 50.28 L 223.68 50.22 L 224.33 49.25 L 224.71 48.80 L 225.17 48.22 L 225.73 47.43 L 225.94 47.20 L 226.52 46.17 L 226.76 45.92 L 227.32 45.15 L 227.78 44.57 L 228.17 44.12 L 228.81 43.14 L 228.85 43.09 L 229.55 42.07 L 229.84 41.75 L 230.38 41.04 L 230.86 40.46 L 231.25 40.02 L 231.89 39.13 L 232.02 38.99 L 232.69 37.96 L 232.91 37.72 L 233.50 36.94 L 233.94 36.43 L 234.38 35.91 L 234.97 35.20 L 235.26 34.89 L 235.99 33.88 L 236.01 33.86 L 236.76 32.83 L 237.02 32.56 L 237.64 31.81 L 238.04 31.35 L 238.53 30.78 L 239.07 30.14 L 239.42 29.76 L 240.10 28.93 L 240.29 28.73 L 241.06 27.70 L 241.12 27.64 L 241.91 26.68 L 242.15 26.43 L 242.79 25.65 L 243.17 25.24 L 243.73 24.63 L 244.20 24.10 L 244.65 23.60 L 245.23 22.94 L 245.57 22.57 L 246.25 21.80 L 246.50 21.55 L 247.28 20.68 L 247.43 20.52 L 248.27 19.49 L 248.30 19.46 L 249.15 18.47 L 249.33 18.29 L 250.09 17.44 L 250.36 17.17 L 251.05 16.42 L 251.38 16.06 L 251.99 15.39 L 252.41 14.97 L 253.01 14.36 L 253.43 13.93 L 254.00 13.34 L 254.46 12.86 L 254.99 12.31 L 255.49 11.81 L 256.00 11.29 L 256.51 10.76 L 256.99 10.26 L 257.54 9.70 L 257.99 9.23 L 258.57 8.65 L 259.01 8.21 L 259.59 7.63 L 260.04 7.18 L 260.62 6.62 L 261.09 6.16 L 261.64 5.61 L 262.12 5.13 L 262.67 4.59 L 263.15 4.10 L 263.70 3.57 L 264.19 3.08 L 264.72 2.56 L 265.27 2.05 L 265.75 1.62 L 266.65 1.03 L 266.77 0.91 L 267.80 0.46 L 268.83 0.03 L 268.88 0.00 L 269.85 -0.35 L 270.88 -0.46 L 271.90 -0.51 L 272.93 -0.48 L 273.96 -0.38 L 274.98 -0.10 L 275.13 0.00 L 276.01 0.39 L 277.03 0.73 L 277.39 1.03 L 278.06 1.50 L 278.72 2.05 L 279.09 2.40 L 279.73 3.08 L 280.11 3.50 L 280.60 4.10 L 281.14 5.07 L 281.20 5.13 L 281.64 6.16 L 281.85 7.18 L 282.14 8.21 L 282.16 8.31 L 282.32 9.23 L 282.37 10.26 L 282.39 11.29 L 282.40 12.31 L 282.41 13.34 L 282.42 14.36 L 282.43 15.39 L 282.44 16.42 L 282.46 17.44 L 282.46 18.47 L 282.48 19.49 L 282.49 20.52 L 282.50 21.55 L 282.52 22.57 L 282.54 23.60 L 282.56 24.63 L 282.58 25.65 L 282.60 26.68 L 282.62 27.70 L 282.64 28.73 L 282.65 29.76 L 282.67 30.78 L 282.68 31.81 L 282.70 32.83 L 282.72 33.86 L 282.75 34.89 L 282.78 35.91 L 282.81 36.94 L 282.85 37.96 L 282.90 38.99 L 282.94 40.02 L 283.00 41.04 L 283.06 42.07 L 283.14 43.09 L 283.19 43.54 L 283.25 44.12 L 283.36 45.15 L 283.44 46.17 L 283.51 47.20 L 283.56 48.22 L 283.61 49.25 L 283.65 50.28 L 283.69 51.30 L 283.72 52.33 L 283.76 53.35 L 283.82 54.38 L 283.89 55.41 L 283.98 56.43 L 284.09 57.46 L 284.22 58.31 L 284.24 58.48 L 284.38 59.51 L 284.49 60.54 L 284.57 61.56 L 284.63 62.59 L 284.70 63.62 L 284.75 64.64 L 284.82 65.67 L 284.90 66.69 L 285.02 67.72 L 285.18 68.75 L 285.24 69.08 L 285.37 69.77 L 285.51 70.80 L 285.61 71.82 L 285.70 72.85 L 285.77 73.88 L 285.85 74.90 L 285.96 75.93 L 286.11 76.95 L 286.27 77.63 L 286.35 77.98 L 286.53 79.01 L 286.65 80.03 L 286.75 81.06 L 286.83 82.08 L 286.95 83.11 L 287.12 84.14 L 287.29 84.81 L 287.39 85.16 L 287.60 86.19 L 287.73 87.21 L 287.82 88.24 L 287.92 89.27 L 288.09 90.29 L 288.32 91.11 L 288.39 91.32 L 288.63 92.34 L 288.78 93.37 L 288.88 94.40 L 289.01 95.42 L 289.24 96.45 L 289.35 96.75 L 289.57 97.47 L 289.76 98.50 L 289.89 99.53 L 290.05 100.55 L 290.33 101.58 L 290.37 101.69 L 290.65 102.61 L 290.83 103.63 L 290.95 104.66 L 291.17 105.68 L 291.40 106.31 L 291.56 106.71 L 291.81 107.74 L 291.96 108.76 L 292.15 109.79 L 292.42 110.54 L 292.54 110.81 L 292.82 111.84 L 292.99 112.87 L 293.23 113.89 L 293.45 114.40 L 293.67 114.92 L 293.92 115.94 L 294.09 116.97 L 294.42 118.00 L 294.48 118.10 L 294.83 119.02 L 295.04 120.05 L 295.31 121.07 L 295.50 121.46 L 295.79 122.10 L 296.02 123.13 L 296.25 124.15 L 296.53 124.75 L 296.74 125.18 L 297.03 126.20 L 297.30 127.23 L 297.56 127.72 L 297.83 128.26 L 298.09 129.28 L 298.39 130.31 L 298.58 130.64 L 298.92 131.33 L 299.17 132.36 L 299.61 133.35 L 299.63 133.39 L 300.06 134.41 L 300.33 135.44 L 300.63 135.98 L 300.91 136.46 L 301.20 137.49 L 301.66 138.48 L 301.69 138.52 L 302.14 139.54 L 302.48 140.57 L 302.69 140.86 L 303.08 141.60 L 303.36 142.62 L 303.71 143.20 L 304.01 143.65 L 304.34 144.67 L 304.74 145.36 L 304.98 145.70 L 305.33 146.73 L 305.76 147.54 L 305.93 147.75 L 306.33 148.78 L 306.79 149.57 L 306.98 149.80 L 307.38 150.83 L 307.82 151.55 L 308.05 151.86 L 308.44 152.88 L 308.84 153.50 L 309.14 153.91 L 309.55 154.93 L 309.87 155.35 L 310.29 155.96 L 310.72 156.99 L 310.89 157.19 L 311.38 158.01 L 311.92 158.94 L 312.01 159.04 L 312.54 160.06 L 312.95 160.62 L 313.30 161.09 L 313.77 162.12 L 313.97 162.34 L 314.48 163.14 L 315.00 163.92 L 315.22 164.17 L 315.74 165.19 L 316.02 165.53 L 316.51 166.22 L 317.05 167.04 L 317.23 167.25 L 317.76 168.27 L 318.08 168.64 L 318.58 169.30 L 319.10 170.01 L 319.38 170.32 L 319.93 171.35 L 320.13 171.57 L 320.70 172.38 L 321.15 172.94 L 321.56 173.40 L 322.18 174.24 L 322.36 174.43 L 323.00 175.45 L 323.21 175.67 L 323.83 176.48 L 324.23 176.95 L 324.69 177.51 L 325.26 178.22 L 325.55 178.53 L 326.19 179.56 L 326.28 179.66 L 326.95 180.59 L 327.31 180.99 L 327.82 181.61 L 328.34 182.19 L 328.75 182.64 L 329.36 183.37 L 329.64 183.66 L 330.39 184.62 L 330.45 184.69 L 331.25 185.72 L 331.41 185.89 L 332.10 186.74 L 332.44 187.11 L 333.01 187.77 L 333.47 188.28 L 333.93 188.79 L 334.49 189.45 L 334.84 189.82 L 335.52 190.56 L 335.80 190.85 L 336.55 191.71 L 336.70 191.87 L 337.55 192.90 L 337.57 192.92 L 338.43 193.92 L 338.60 194.10 L 339.36 194.95 L 339.62 195.22 L 340.32 195.98 L 340.65 196.33 L 341.25 197.00 L 341.68 197.45 L 342.21 198.03 L 342.70 198.53 L 343.22 199.05 L 343.73 199.58 L 344.21 200.08 L 344.75 200.65 L 345.19 201.11 L 345.78 201.70 L 346.20 202.13 L 346.81 202.78 L 347.17 203.16 L 347.83 203.84 L 348.17 204.18 L 348.86 204.92 L 349.14 205.21 L 349.88 205.97 L 350.15 206.24 L 350.91 207.07 L 351.11 207.26 L 351.94 208.09 L 352.13 208.29 L 352.96 209.18 L 353.09 209.31 L 353.99 210.25 L 354.08 210.34 L 355.01 211.32 L 355.06 211.37 L 356.04 212.39 L 356.04 212.39 L 357.02 213.42 L 357.07 213.46 L 358.01 214.44 L 358.09 214.53 L 358.99 215.47 L 359.12 215.60 L 359.97 216.50 L 360.14 216.67 L 360.96 217.52 L 361.17 217.74 L 361.95 218.55 L 362.20 218.80 L 362.94 219.58 L 363.22 219.86 L 363.94 220.60 L 364.25 220.91 L 364.94 221.63 L 365.27 221.97 L 365.94 222.65 L 366.30 223.02 L 366.95 223.68 L 367.33 224.06 L 367.94 224.71 L 368.35 225.12 L 368.94 225.73 L 369.38 226.18 L 369.95 226.76 L 370.40 227.22 L 370.95 227.78 L 371.43 228.27 L 371.96 228.81 L 372.46 229.32 L 372.96 229.84 L 373.48 230.37 L 373.96 230.86 L 374.51 231.42 L 374.97 231.89 L 375.54 232.47 L 375.97 232.91 L 376.56 233.54 L 376.95 233.94 L 377.59 234.62 L 377.92 234.97 L 378.61 235.74 L 378.85 235.99 L 379.64 236.86 L 379.79 237.02 L 380.67 238.01 L 380.70 238.04 L 381.61 239.07 L 381.69 239.15 L 382.52 240.10 L 382.72 240.29 L 383.47 241.12 L 383.74 241.40 L 384.43 242.15 L 384.77 242.51 L 385.36 243.17 L 385.80 243.64 L 386.30 244.20 L 386.82 244.76 L 387.27 245.23 L 387.85 245.88 L 388.20 246.25 L 388.87 247.02 L 389.13 247.28 L 389.90 248.20 L 390.00 248.30 L 390.82 249.33 L 390.93 249.44 L 391.73 250.36 L 391.95 250.59 L 392.60 251.38 L 392.98 251.80 L 393.47 252.41 L 394.00 253.10 L 394.30 253.43 L 394.94 254.46 L 395.03 254.56 L 395.69 255.49 L 396.06 255.91 L 396.54 256.51 L 397.08 257.21 L 397.38 257.54 L 397.99 258.57 L 398.11 258.69 L 398.71 259.59 L 399.13 260.14 L 399.52 260.62 L 400.12 261.64 L 400.16 261.69 L 400.77 262.67 L 401.19 263.19 L 401.59 263.70 L 402.21 264.72 L 402.22 264.72 L 402.85 265.75 L 403.24 266.25 L 403.63 266.77 L 404.13 267.80 L 404.26 267.95 L 404.81 268.83 L 405.29 269.59 L 405.51 269.85 L 405.97 270.88 L 406.32 271.32 L 406.74 271.90 L 407.27 272.93 L 407.34 273.01 L 407.89 273.96 L 408.37 274.78 L 408.53 274.98 L 408.97 276.01 L 409.39 276.69 L 409.66 277.03 L 410.05 278.06 L 410.42 278.59 L 410.77 279.09 L 411.16 280.11 L 411.45 280.50 L 411.86 281.14 L 412.21 282.16 L 412.47 282.53 L 412.86 283.19 L 413.19 284.22 L 413.50 284.69 L 413.85 285.24 L 414.17 286.27 L 414.53 286.84 L 414.83 287.29 L 415.16 288.32 L 415.55 289.04 L 415.77 289.35 L 416.09 290.37 L 416.51 291.40 L 416.58 291.49 L 417.02 292.42 L 417.30 293.45 L 417.60 293.97 L 417.90 294.48 L 418.19 295.50 L 418.63 296.47 L 418.67 296.53 L 419.08 297.56 L 419.30 298.58 L 419.66 299.36 L 419.80 299.61 L 420.13 300.63 L 420.37 301.66 L 420.68 302.29 L 420.90 302.69 L 421.19 303.71 L 421.43 304.74 L 421.71 305.38 L 421.89 305.76 L 422.16 306.79 L 422.34 307.82 L 422.69 308.84 L 422.73 308.92 L 423.09 309.87 L 423.28 310.89 L 423.52 311.92 L 423.76 312.55 L 423.92 312.95 L 424.17 313.97 L 424.30 315.00 L 424.47 316.02 L 424.79 317.01 L 424.81 317.05 L 425.12 318.08 L 425.28 319.10 L 425.41 320.13 L 425.59 321.15 L 425.81 321.98 L 425.88 322.18 L 426.11 323.21 L 426.25 324.23 L 426.34 325.26 L 426.46 326.28 L 426.63 327.31 L 426.84 328.14 L 426.89 328.34 L 427.06 329.36 L 427.18 330.39 L 427.26 331.41 L 427.33 332.44 L 427.35 333.47 L 427.35 334.49 L 427.35 335.52 L 427.35 336.55 L 427.35 337.57 L 427.35 338.60 L 427.35 339.62 L 427.35 340.65 L 427.35 341.68 L 427.35 342.70 L 427.35 343.73 L 427.35 344.75 L 427.35 345.78 L 427.35 346.81 L 427.35 347.83 L 427.35 348.86 L 427.35 349.88 L 427.35 350.91 L 427.35 351.94 L 427.35 352.96 L 427.35 353.99 L 427.35 355.01 L 427.35 356.04 L 427.35 357.07 L 427.35 358.09 L 427.35 359.12 L 427.35 360.14 L 427.34 361.17 L 427.26 362.20 L 427.16 363.22 L 427.01 364.25 L 426.84 365.04 L 426.78 365.27 L 426.59 366.30 L 426.47 367.33 L 426.36 368.35 L 426.26 369.38 L 426.10 370.40 L 425.83 371.43 L 425.81 371.49 L 425.55 372.46 L 425.38 373.48 L 425.27 374.51 L 425.14 375.54 L 424.88 376.56 L 424.79 376.79 L 424.51 377.59 L 424.32 378.61 L 424.17 379.64 L 423.94 380.67 L 423.76 381.07 L 423.51 381.69 L 423.28 382.72 L 423.12 383.74 L 422.78 384.77 L 422.73 384.85 L 422.39 385.80 L 422.19 386.82 L 421.92 387.85 L 421.71 388.27 L 421.43 388.87 L 421.20 389.90 L 420.96 390.93 L 420.68 391.48 L 420.43 391.95 L 420.16 392.98 L 419.88 394.00 L 419.66 394.43 L 419.36 395.03 L 419.11 396.06 L 418.72 397.08 L 418.63 397.21 L 418.22 398.11 L 417.96 399.13 L 417.60 399.84 L 417.41 400.16 L 417.07 401.19 L 416.65 402.21 L 416.58 402.31 L 416.13 403.24 L 415.83 404.26 L 415.55 404.72 L 415.22 405.29 L 414.91 406.32 L 414.53 406.98 L 414.27 407.34 L 413.94 408.37 L 413.50 409.18 L 413.33 409.39 L 412.94 410.42 L 412.47 411.27 L 412.33 411.45 L 411.91 412.47 L 411.45 413.30 L 411.29 413.50 L 410.88 414.53 L 410.42 415.29 L 410.21 415.55 L 409.79 416.58 L 409.39 417.17 L 409.07 417.60 L 408.68 418.63 L 408.37 419.04 L 407.96 419.66 L 407.48 420.68 L 407.34 420.84 L 406.82 421.71 L 406.32 422.54 L 406.15 422.73 L 405.68 423.76 L 405.29 424.28 L 404.91 424.79 L 404.38 425.81 L 404.26 425.94 L 403.71 426.84 L 403.24 427.51 L 402.95 427.86 L 402.46 428.89 L 402.21 429.18 L 401.70 429.92 L 401.19 430.63 L 400.92 430.94 L 400.39 431.97 L 400.16 432.23 L 399.63 432.99 L 399.13 433.66 L 398.82 434.02 L 398.21 435.05 L 398.11 435.15 L 397.49 436.07 L 397.08 436.56 L 396.64 437.10 L 396.06 437.91 L 395.86 438.12 L 395.23 439.15 L 395.03 439.36 L 394.43 440.18 L 394.00 440.67 L 393.55 441.20 L 392.98 441.94 L 392.72 442.23 L 392.00 443.25 L 391.95 443.31 L 391.23 444.28 L 390.93 444.61 L 390.35 445.31 L 389.90 445.82 L 389.45 446.33 L 388.87 447.01 L 388.55 447.36 L 387.85 448.21 L 387.68 448.38 L 386.92 449.41 L 386.82 449.51 L 386.08 450.44 L 385.80 450.74 L 385.15 451.46 L 384.77 451.87 L 384.20 452.49 L 383.74 452.97 L 383.24 453.52 L 382.72 454.07 L 382.27 454.54 L 381.69 455.17 L 381.30 455.57 L 380.67 456.24 L 380.32 456.59 L 379.64 457.31 L 379.33 457.62 L 378.61 458.38 L 378.35 458.65 L 377.59 459.44 L 377.36 459.67 L 376.56 460.47 L 376.33 460.70 L 375.54 461.45 L 375.26 461.72 L 374.51 462.45 L 374.21 462.75 L 373.48 463.44 L 373.14 463.78 L 372.46 464.44 L 372.09 464.80 L 371.43 465.44 L 371.04 465.83 L 370.40 466.44 L 369.99 466.85 L 369.38 467.45 L 368.92 467.88 L 368.35 468.40 L 367.81 468.91 L 367.33 469.35 L 366.67 469.93 L 366.30 470.28 L 365.51 470.96 L 365.27 471.19 L 364.30 471.98 L 364.25 472.03 L 363.22 472.86 L 363.07 473.01 L 362.20 473.74 L 361.88 474.04 L 361.17 474.66 L 360.74 475.06 L 360.14 475.59 L 359.58 476.09 L 359.12 476.50 L 358.34 477.11 L 358.09 477.35 L 357.07 478.08 L 357.00 478.14 L 356.04 478.83 L 355.67 479.17 L 355.01 479.71 L 354.45 480.19 L 353.99 480.60 L 353.18 481.22 L 352.96 481.42 L 351.94 482.11 L 351.79 482.24 L 350.91 482.91 L 350.50 483.27 L 349.88 483.78 L 349.22 484.30 L 348.86 484.62 L 347.83 485.21 L 347.71 485.32 L 346.81 485.93 L 346.30 486.35 L 345.78 486.78 L 344.99 487.37 L 344.75 487.59 L 343.73 488.14 L 343.43 488.40 L 342.70 488.94 L 342.09 489.43 L 341.68 489.78 L 340.65 490.44 L 340.64 490.45 L 339.62 491.09 L 339.13 491.48 L 338.60 491.90 L 337.64 492.51 L 337.57 492.57 L 336.55 493.14 L 336.05 493.53 L 335.52 493.94 L 334.49 494.53 L 334.46 494.56 L 333.47 495.18 L 332.96 495.58 L 332.44 495.98 L 331.41 496.54 L 331.34 496.61 L 330.39 497.20 L 329.82 497.64 L 329.36 498.00 L 328.34 498.54 L 328.20 498.66 L 327.31 499.17 L 326.46 499.69 L 326.28 499.84 L 325.26 500.34 L 324.76 500.71 L 324.23 501.10 L 323.21 501.55 L 322.99 501.74 L 322.18 502.25 L 321.33 502.77 L 321.15 502.92 L 320.13 503.40 L 319.60 503.79 L 319.10 504.16 L 318.08 504.62 L 317.85 504.82 L 317.05 505.30 L 316.02 505.82 L 316.00 505.84 L 315.00 506.38 L 314.15 506.87 L 313.97 507.02 L 312.95 507.46 L 312.27 507.90 L 311.92 508.17 L 310.89 508.56 L 310.38 508.92 L 309.87 509.28 L 308.84 509.67 L 308.49 509.95 L 307.82 510.38 L 306.79 510.82 L 306.61 510.97 L 305.76 511.43 Z M 328.33 474.04 L 328.34 474.03 L 329.36 473.38 L 329.81 473.01 L 330.39 472.55 L 331.17 471.98 L 331.41 471.77 L 332.44 471.21 L 332.72 470.96 L 333.47 470.42 L 334.08 469.93 L 334.49 469.57 L 335.51 468.91 L 335.52 468.90 L 336.55 468.18 L 336.88 467.88 L 337.57 467.34 L 338.16 466.85 L 338.60 466.48 L 339.51 465.83 L 339.62 465.72 L 340.65 465.08 L 340.95 464.80 L 341.68 464.23 L 342.19 463.78 L 342.70 463.33 L 343.41 462.75 L 343.73 462.45 L 344.69 461.72 L 344.75 461.66 L 345.78 460.94 L 346.03 460.70 L 346.81 460.06 L 347.24 459.67 L 347.83 459.16 L 348.42 458.65 L 348.86 458.24 L 349.56 457.62 L 349.88 457.31 L 350.72 456.59 L 350.91 456.41 L 351.94 455.58 L 351.95 455.57 L 352.96 454.74 L 353.17 454.54 L 353.99 453.84 L 354.33 453.52 L 355.01 452.90 L 355.44 452.49 L 356.04 451.91 L 356.50 451.46 L 357.07 450.91 L 357.55 450.44 L 358.09 449.91 L 358.61 449.41 L 359.12 448.91 L 359.66 448.38 L 360.14 447.91 L 360.71 447.36 L 361.17 446.91 L 361.75 446.33 L 362.20 445.88 L 362.75 445.31 L 363.22 444.82 L 363.75 444.28 L 364.25 443.76 L 364.75 443.25 L 365.27 442.71 L 365.75 442.23 L 366.30 441.65 L 366.74 441.20 L 367.33 440.59 L 367.72 440.18 L 368.35 439.46 L 368.65 439.15 L 369.38 438.28 L 369.53 438.12 L 370.34 437.10 L 370.40 437.03 L 371.19 436.07 L 371.43 435.82 L 372.10 435.05 L 372.46 434.66 L 373.03 434.02 L 373.48 433.50 L 373.93 432.99 L 374.51 432.28 L 374.79 431.97 L 375.53 430.94 L 375.54 430.94 L 376.27 429.92 L 376.56 429.60 L 377.14 428.89 L 377.59 428.37 L 378.03 427.86 L 378.61 427.09 L 378.85 426.84 L 379.43 425.81 L 379.64 425.58 L 380.21 424.79 L 380.67 424.22 L 381.05 423.76 L 381.69 422.80 L 381.76 422.73 L 382.38 421.71 L 382.72 421.32 L 383.21 420.68 L 383.74 419.88 L 383.94 419.66 L 384.45 418.63 L 384.77 418.25 L 385.24 417.60 L 385.80 416.73 L 385.93 416.58 L 386.46 415.55 L 386.82 415.11 L 387.26 414.53 L 387.83 413.50 L 387.85 413.48 L 388.41 412.47 L 388.87 411.74 L 389.11 411.45 L 389.54 410.42 L 389.90 409.94 L 390.29 409.39 L 390.73 408.37 L 390.93 408.14 L 391.42 407.34 L 391.93 406.32 L 391.95 406.29 L 392.46 405.29 L 392.98 404.29 L 393.00 404.26 L 393.51 403.24 L 394.00 402.29 L 394.07 402.21 L 394.54 401.19 L 395.03 400.27 L 395.12 400.16 L 395.54 399.13 L 395.94 398.11 L 396.06 397.96 L 396.50 397.08 L 396.82 396.06 L 397.08 395.66 L 397.44 395.03 L 397.74 394.00 L 398.11 393.32 L 398.33 392.98 L 398.63 391.95 L 398.96 390.93 L 399.13 390.65 L 399.50 389.90 L 399.74 388.87 L 400.16 387.94 L 400.22 387.85 L 400.62 386.82 L 400.86 385.80 L 401.19 385.05 L 401.33 384.77 L 401.64 383.74 L 401.83 382.72 L 402.21 381.76 L 402.25 381.69 L 402.62 380.67 L 402.82 379.64 L 403.13 378.61 L 403.24 378.37 L 403.53 377.59 L 403.72 376.56 L 403.87 375.54 L 404.16 374.51 L 404.26 374.27 L 404.55 373.48 L 404.74 372.46 L 404.89 371.43 L 405.07 370.40 L 405.29 369.65 L 405.38 369.38 L 405.62 368.35 L 405.76 367.33 L 405.86 366.30 L 406.01 365.27 L 406.21 364.25 L 406.32 363.80 L 406.45 363.22 L 406.60 362.20 L 406.72 361.17 L 406.80 360.14 L 406.87 359.12 L 406.96 358.09 L 407.02 357.07 L 407.10 356.04 L 407.18 355.01 L 407.29 353.99 L 407.34 353.57 L 407.41 352.96 L 407.52 351.94 L 407.59 350.91 L 407.60 349.88 L 407.61 348.86 L 407.62 347.83 L 407.62 346.81 L 407.63 345.78 L 407.64 344.75 L 407.61 343.73 L 407.55 342.70 L 407.47 341.68 L 407.38 340.65 L 407.34 340.29 L 407.28 339.62 L 407.19 338.60 L 407.11 337.57 L 407.01 336.55 L 406.91 335.52 L 406.84 334.49 L 406.78 333.47 L 406.70 332.44 L 406.60 331.41 L 406.43 330.39 L 406.32 330.00 L 406.13 329.36 L 405.95 328.34 L 405.83 327.31 L 405.73 326.28 L 405.59 325.26 L 405.35 324.23 L 405.29 324.08 L 405.03 323.21 L 404.83 322.18 L 404.70 321.15 L 404.48 320.13 L 404.26 319.55 L 404.09 319.10 L 403.85 318.08 L 403.71 317.05 L 403.47 316.02 L 403.24 315.52 L 403.01 315.00 L 402.76 313.97 L 402.57 312.95 L 402.21 312.01 L 402.16 311.92 L 401.81 310.89 L 401.62 309.87 L 401.21 308.84 L 401.19 308.81 L 400.77 307.82 L 400.55 306.79 L 400.16 305.92 L 400.06 305.76 L 399.70 304.74 L 399.46 303.71 L 399.13 303.10 L 398.88 302.69 L 398.58 301.66 L 398.12 300.63 L 398.11 300.62 L 397.65 299.61 L 397.35 298.58 L 397.08 298.15 L 396.75 297.56 L 396.46 296.53 L 396.06 295.84 L 395.81 295.50 L 395.46 294.48 L 395.03 293.70 L 394.84 293.45 L 394.46 292.42 L 394.00 291.55 L 393.88 291.40 L 393.46 290.37 L 392.98 289.51 L 392.84 289.35 L 392.39 288.32 L 391.95 287.62 L 391.70 287.29 L 391.30 286.27 L 390.93 285.72 L 390.58 285.24 L 390.20 284.22 L 389.90 283.83 L 389.47 283.19 L 388.92 282.16 L 388.87 282.11 L 388.31 281.14 L 387.85 280.46 L 387.56 280.11 L 387.12 279.09 L 386.82 278.72 L 386.37 278.06 L 385.80 277.09 L 385.75 277.03 L 385.15 276.01 L 384.77 275.53 L 384.35 274.98 L 383.74 274.05 L 383.65 273.96 L 383.08 272.93 L 382.72 272.49 L 382.27 271.90 L 381.69 271.02 L 381.56 270.88 L 380.95 269.85 L 380.67 269.53 L 380.13 268.83 L 379.64 268.22 L 379.27 267.80 L 378.61 266.85 L 378.54 266.77 L 377.90 265.75 L 377.59 265.40 L 377.06 264.72 L 376.56 264.15 L 376.14 263.70 L 375.54 263.02 L 375.20 262.67 L 374.51 261.88 L 374.28 261.64 L 373.48 260.69 L 373.41 260.62 L 372.62 259.59 L 372.46 259.43 L 371.69 258.57 L 371.43 258.29 L 370.77 257.54 L 370.40 257.16 L 369.83 256.51 L 369.38 256.03 L 368.88 255.49 L 368.35 254.93 L 367.90 254.46 L 367.33 253.85 L 366.92 253.43 L 366.30 252.75 L 365.97 252.41 L 365.27 251.68 L 364.99 251.38 L 364.25 250.55 L 364.06 250.36 L 363.22 249.46 L 363.10 249.33 L 362.20 248.30 L 362.20 248.30 L 361.32 247.28 L 361.17 247.13 L 360.35 246.25 L 360.14 246.04 L 359.39 245.23 L 359.12 244.95 L 358.38 244.20 L 358.09 243.91 L 357.40 243.17 L 357.07 242.84 L 356.38 242.15 L 356.04 241.80 L 355.38 241.12 L 355.01 240.75 L 354.38 240.10 L 353.99 239.69 L 353.39 239.07 L 352.96 238.64 L 352.38 238.04 L 351.94 237.60 L 351.37 237.02 L 350.91 236.55 L 350.37 235.99 L 349.88 235.49 L 349.38 234.97 L 348.86 234.44 L 348.36 233.94 L 347.83 233.39 L 347.37 232.91 L 346.81 232.34 L 346.35 231.89 L 345.78 231.30 L 345.34 230.86 L 344.75 230.25 L 344.34 229.84 L 343.73 229.19 L 343.36 228.81 L 342.70 228.16 L 342.33 227.78 L 341.68 227.11 L 341.32 226.76 L 340.65 226.07 L 340.32 225.73 L 339.62 225.01 L 339.32 224.71 L 338.60 223.94 L 338.34 223.68 L 337.57 222.90 L 337.33 222.65 L 336.55 221.86 L 336.31 221.63 L 335.52 220.81 L 335.31 220.60 L 334.49 219.72 L 334.35 219.58 L 333.47 218.61 L 333.40 218.55 L 332.47 217.52 L 332.44 217.50 L 331.53 216.50 L 331.41 216.38 L 330.57 215.47 L 330.39 215.29 L 329.60 214.44 L 329.36 214.21 L 328.62 213.42 L 328.34 213.13 L 327.64 212.39 L 327.31 212.05 L 326.68 211.37 L 326.28 210.95 L 325.72 210.34 L 325.26 209.85 L 324.76 209.31 L 324.23 208.74 L 323.80 208.29 L 323.21 207.65 L 322.83 207.26 L 322.18 206.52 L 321.91 206.24 L 321.15 205.41 L 320.95 205.21 L 320.13 204.25 L 320.06 204.18 L 319.23 203.16 L 319.10 203.03 L 318.39 202.13 L 318.08 201.80 L 317.48 201.11 L 317.05 200.63 L 316.57 200.08 L 316.02 199.46 L 315.64 199.05 L 315.00 198.28 L 314.75 198.03 L 313.97 197.01 L 313.97 197.00 L 313.20 195.98 L 312.95 195.70 L 312.32 194.95 L 311.92 194.52 L 311.39 193.92 L 310.89 193.33 L 310.51 192.90 L 309.87 192.05 L 309.70 191.87 L 309.06 190.85 L 308.84 190.62 L 308.21 189.82 L 307.82 189.36 L 307.34 188.79 L 306.79 188.03 L 306.55 187.77 L 305.90 186.74 L 305.76 186.60 L 305.16 185.72 L 304.74 185.23 L 304.28 184.69 L 303.71 183.87 L 303.52 183.66 L 302.97 182.64 L 302.69 182.32 L 302.16 181.61 L 301.66 180.93 L 301.36 180.59 L 300.79 179.56 L 300.63 179.39 L 300.08 178.53 L 299.61 177.88 L 299.30 177.51 L 298.77 176.48 L 298.58 176.27 L 298.04 175.45 L 297.56 174.75 L 297.28 174.43 L 296.83 173.40 L 296.53 173.04 L 296.07 172.38 L 295.50 171.39 L 295.47 171.35 L 294.92 170.32 L 294.48 169.71 L 294.15 169.30 L 293.74 168.27 L 293.45 167.90 L 293.02 167.25 L 292.54 166.22 L 292.42 166.09 L 291.92 165.19 L 291.40 164.31 L 291.27 164.17 L 290.82 163.14 L 290.37 162.37 L 290.17 162.12 L 289.78 161.09 L 289.35 160.39 L 289.09 160.06 L 288.72 159.04 L 288.32 158.41 L 288.03 158.01 L 287.70 156.99 L 287.29 156.29 L 287.05 155.96 L 286.71 154.93 L 286.27 154.15 L 286.08 153.91 L 285.70 152.88 L 285.24 151.98 L 285.14 151.86 L 284.73 150.83 L 284.35 149.80 L 284.22 149.63 L 283.79 148.78 L 283.48 147.75 L 283.19 147.28 L 282.86 146.73 L 282.60 145.70 L 282.16 144.78 L 282.09 144.67 L 281.69 143.65 L 281.39 142.62 L 281.14 142.21 L 280.80 141.60 L 280.55 140.57 L 280.11 139.55 L 280.11 139.54 L 279.69 138.52 L 279.45 137.49 L 279.09 136.70 L 278.94 136.46 L 278.61 135.44 L 278.35 134.41 L 278.06 133.80 L 277.85 133.39 L 277.57 132.36 L 277.34 131.33 L 277.03 130.67 L 276.84 130.31 L 276.55 129.28 L 276.33 128.26 L 276.01 127.47 L 275.88 127.23 L 275.58 126.20 L 275.40 125.18 L 275.07 124.15 L 274.98 123.99 L 274.64 123.13 L 274.44 122.10 L 274.22 121.07 L 273.96 120.39 L 273.80 120.05 L 273.53 119.02 L 273.37 118.00 L 273.12 116.97 L 272.93 116.52 L 272.70 115.94 L 272.47 114.92 L 272.33 113.89 L 272.10 112.87 L 271.90 112.36 L 271.71 111.84 L 271.48 110.81 L 271.34 109.79 L 271.13 108.76 L 270.88 108.01 L 270.77 107.74 L 270.52 106.71 L 270.38 105.68 L 270.25 104.66 L 270.03 103.63 L 269.85 103.12 L 269.68 102.61 L 269.46 101.58 L 269.33 100.55 L 269.21 99.53 L 269.02 98.50 L 268.83 97.86 L 268.70 97.47 L 268.48 96.45 L 268.35 95.42 L 268.24 94.40 L 268.09 93.37 L 267.86 92.34 L 267.80 92.16 L 267.59 91.32 L 267.42 90.29 L 267.31 89.27 L 267.22 88.24 L 267.10 87.21 L 266.90 86.19 L 266.77 85.72 L 266.63 85.16 L 266.46 84.14 L 266.35 83.11 L 266.27 82.08 L 266.18 81.06 L 266.07 80.03 L 265.91 79.01 L 265.75 78.30 L 265.67 77.98 L 265.50 76.95 L 265.38 75.93 L 265.30 74.90 L 265.23 73.88 L 265.16 72.85 L 265.07 71.82 L 264.94 70.80 L 264.76 69.77 L 264.72 69.55 L 264.59 68.75 L 264.45 67.72 L 264.36 66.69 L 264.28 65.67 L 264.22 64.64 L 264.17 63.62 L 264.10 62.59 L 264.03 61.56 L 263.93 60.54 L 263.83 59.51 L 263.70 58.56 L 263.68 58.48 L 263.55 57.46 L 263.44 56.43 L 263.36 55.41 L 263.30 54.38 L 263.24 53.35 L 263.20 52.33 L 263.17 51.30 L 263.14 50.28 L 263.10 49.25 L 263.07 48.22 L 263.02 47.20 L 262.97 46.17 L 262.91 45.15 L 262.84 44.12 L 262.76 43.09 L 262.67 42.18 L 262.66 42.07 L 262.56 41.04 L 262.48 40.02 L 262.41 38.99 L 262.35 37.96 L 262.30 36.94 L 262.21 35.91 L 261.64 35.31 L 261.10 35.91 L 260.62 36.44 L 260.16 36.94 L 259.59 37.57 L 259.22 37.96 L 258.57 38.74 L 258.33 38.99 L 257.54 39.91 L 257.43 40.02 L 256.65 41.04 L 256.51 41.18 L 255.82 42.07 L 255.49 42.42 L 254.92 43.09 L 254.46 43.62 L 254.02 44.12 L 253.43 44.82 L 253.13 45.15 L 252.41 46.05 L 252.28 46.17 L 251.56 47.20 L 251.38 47.39 L 250.75 48.22 L 250.36 48.67 L 249.88 49.25 L 249.33 49.91 L 249.00 50.28 L 248.30 51.23 L 248.23 51.30 L 247.55 52.33 L 247.28 52.62 L 246.70 53.35 L 246.25 53.90 L 245.84 54.38 L 245.23 55.24 L 245.07 55.41 L 244.47 56.43 L 244.20 56.73 L 243.65 57.46 L 243.17 58.05 L 242.80 58.48 L 242.15 59.43 L 242.07 59.51 L 241.45 60.54 L 241.12 60.92 L 240.64 61.56 L 240.10 62.32 L 239.86 62.59 L 239.34 63.62 L 239.07 63.91 L 238.53 64.64 L 238.04 65.31 L 237.74 65.67 L 237.15 66.69 L 237.02 66.84 L 236.46 67.72 L 235.99 68.37 L 235.68 68.75 L 235.17 69.77 L 234.97 70.00 L 234.44 70.80 L 233.94 71.52 L 233.67 71.82 L 233.17 72.85 L 232.91 73.16 L 232.43 73.88 L 231.89 74.77 L 231.77 74.90 L 231.27 75.93 L 230.86 76.48 L 230.50 76.95 L 230.03 77.98 L 229.84 78.20 L 229.33 79.01 L 228.81 79.84 L 228.64 80.03 L 228.19 81.06 L 227.78 81.66 L 227.46 82.08 L 227.05 83.11 L 226.76 83.49 L 226.34 84.14 L 225.86 85.16 L 225.73 85.30 L 225.22 86.19 L 224.71 87.13 L 224.63 87.21 L 224.16 88.24 L 223.68 89.08 L 223.53 89.27 L 223.10 90.29 L 222.65 91.04 L 222.43 91.32 L 222.04 92.34 L 221.63 92.99 L 221.34 93.37 L 221.00 94.40 L 220.60 95.06 L 220.34 95.42 L 219.99 96.45 L 219.58 97.18 L 219.36 97.47 L 218.99 98.50 L 218.55 99.30 L 218.37 99.53 L 217.99 100.55 L 217.52 101.49 L 217.45 101.58 L 217.02 102.61 L 216.63 103.63 L 216.50 103.80 L 216.06 104.66 L 215.75 105.68 L 215.47 106.11 L 215.12 106.71 L 214.84 107.74 L 214.44 108.51 L 214.27 108.76 L 213.93 109.79 L 213.57 110.81 L 213.42 111.04 L 213.02 111.84 L 212.76 112.87 L 212.39 113.57 L 212.18 113.89 L 211.87 114.92 L 211.54 115.94 L 211.37 116.24 L 211.02 116.97 L 210.78 118.00 L 210.35 119.02 L 210.34 119.04 L 209.92 120.05 L 209.67 121.07 L 209.31 121.84 L 209.16 122.10 L 208.85 123.13 L 208.63 124.15 L 208.29 124.93 L 208.15 125.18 L 207.83 126.20 L 207.61 127.23 L 207.26 128.03 L 207.13 128.26 L 206.81 129.28 L 206.63 130.31 L 206.28 131.33 L 206.24 131.41 L 205.87 132.36 L 205.69 133.39 L 205.43 134.41 L 205.21 134.89 L 204.96 135.44 L 204.73 136.46 L 204.57 137.49 L 204.26 138.52 L 204.18 138.68 L 203.88 139.54 L 203.69 140.57 L 203.52 141.60 L 203.19 142.62 L 203.16 142.68 L 202.82 143.65 L 202.66 144.67 L 202.52 145.70 L 202.28 146.73 L 202.13 147.11 L 201.90 147.75 L 201.70 148.78 L 201.57 149.80 L 201.39 150.83 L 201.11 151.83 L 201.09 151.86 L 200.82 152.88 L 200.66 153.91 L 200.55 154.93 L 200.41 155.96 L 200.17 156.99 L 200.08 157.24 L 199.86 158.01 L 199.69 159.04 L 199.58 160.06 L 199.49 161.09 L 199.37 162.12 L 199.17 163.14 L 199.05 163.57 L 198.89 164.17 L 198.71 165.19 L 198.60 166.22 L 198.53 167.25 L 198.46 168.27 L 198.36 169.30 L 198.22 170.32 L 198.03 171.27 L 198.01 171.35 L 197.81 172.38 L 197.68 173.40 L 197.60 174.43 L 197.54 175.45 L 197.49 176.48 L 197.44 177.51 L 197.37 178.53 L 197.28 179.56 L 197.17 180.59 L 197.03 181.61 L 197.00 181.84 L 196.91 182.64 L 196.83 183.66 L 196.75 184.69 L 196.69 185.72 L 196.63 186.74 L 196.59 187.77 L 196.55 188.79 L 196.52 189.82 L 196.51 190.85 L 196.49 191.87 L 196.48 192.90 L 196.46 193.92 L 196.45 194.95 L 196.43 195.98 L 196.41 197.00 L 196.41 198.03 L 196.41 199.05 L 196.41 200.08 L 196.42 201.11 L 196.42 202.13 L 196.42 203.16 L 196.42 204.18 L 196.43 205.21 L 196.45 206.24 L 196.46 207.26 L 196.48 208.29 L 196.50 209.31 L 196.51 210.34 L 196.53 211.37 L 196.55 212.39 L 196.58 213.42 L 196.63 214.44 L 196.68 215.47 L 196.75 216.50 L 196.83 217.52 L 196.92 218.55 L 197.00 219.29 L 197.04 219.58 L 197.14 220.60 L 197.24 221.63 L 197.34 222.65 L 197.41 223.68 L 197.47 224.71 L 197.52 225.73 L 197.57 226.76 L 197.63 227.78 L 197.71 228.81 L 197.82 229.84 L 198.02 230.86 L 198.03 230.91 L 198.21 231.89 L 198.35 232.91 L 198.45 233.94 L 198.52 234.97 L 198.59 235.99 L 198.67 237.02 L 198.79 238.04 L 198.99 239.07 L 199.05 239.31 L 199.24 240.10 L 199.40 241.12 L 199.51 242.15 L 199.59 243.17 L 199.68 244.20 L 199.81 245.23 L 200.04 246.25 L 200.08 246.38 L 200.31 247.28 L 200.48 248.30 L 200.59 249.33 L 200.69 250.36 L 200.85 251.38 L 201.11 252.37 L 201.12 252.41 L 201.38 253.43 L 201.53 254.46 L 201.65 255.49 L 201.79 256.51 L 202.03 257.54 L 202.13 257.84 L 202.36 258.57 L 202.55 259.59 L 202.66 260.62 L 202.80 261.64 L 203.03 262.67 L 203.16 263.00 L 203.39 263.70 L 203.59 264.72 L 203.72 265.75 L 203.91 266.77 L 204.18 267.63 L 204.26 267.80 L 204.54 268.83 L 204.69 269.85 L 204.84 270.88 L 205.07 271.90 L 205.21 272.43 L 205.35 272.93 L 205.43 273.96 L 205.36 274.98 L 205.21 275.66 L 205.13 276.01 L 204.84 277.03 L 204.61 278.06 L 204.18 278.79 L 203.96 279.09 L 203.46 280.11 L 203.16 280.44 L 202.57 281.14 L 202.13 281.57 L 201.43 282.16 L 201.11 282.46 L 200.08 282.94 L 199.74 283.19 L 199.05 283.59 L 198.03 283.82 L 197.00 284.07 L 196.39 284.22 L 195.98 284.32 L 194.95 284.39 L 193.92 284.26 L 193.79 284.22 L 192.90 283.99 L 191.87 283.76 L 190.85 283.56 L 189.93 283.19 L 189.82 283.13 L 188.79 282.76 L 187.77 282.54 L 186.99 282.16 L 186.74 282.00 L 185.72 281.67 L 184.69 281.35 L 184.38 281.14 L 183.66 280.75 L 182.64 280.45 L 182.07 280.11 L 181.61 279.82 L 180.59 279.47 L 179.98 279.09 L 179.56 278.78 L 178.53 278.43 L 178.02 278.06 L 177.51 277.69 L 176.48 277.24 L 176.24 277.03 L 175.45 276.54 L 174.60 276.01 L 174.43 275.85 L 173.40 275.28 L 173.06 274.98 L 172.38 274.50 L 171.62 273.96 L 171.35 273.71 L 170.32 273.07 L 170.18 272.93 L 169.30 272.29 L 168.87 271.90 L 168.27 271.38 L 167.72 270.88 L 167.25 270.45 L 166.57 269.85 L 166.22 269.51 L 165.51 268.83 L 165.19 268.51 L 164.47 267.80 L 164.17 267.50 L 163.42 266.77 L 163.14 266.49 L 162.47 265.75 L 162.12 265.38 L 161.51 264.72 L 161.09 264.27 L 160.59 263.70 L 160.06 263.09 L 159.68 262.67 L 159.04 261.86 L 158.83 261.64 L 158.22 260.62 L 158.01 260.39 L 157.45 259.59 L 156.99 259.03 L 156.59 258.57 L 155.99 257.54 L 155.96 257.51 L 155.37 256.51 L 154.93 255.93 L 154.58 255.49 L 154.11 254.46 L 153.91 254.23 L 153.42 253.43 L 152.88 252.46 L 152.84 252.41 L 152.32 251.38 L 151.86 250.55 L 151.70 250.36 L 151.29 249.33 L 150.83 248.52 L 150.66 248.30 L 150.28 247.28 L 149.80 246.28 L 149.78 246.25 L 149.30 245.23 L 148.78 244.67 L 148.22 245.23 L 147.75 245.79 L 147.36 246.25 L 146.73 247.24 L 146.69 247.28 L 146.06 248.30 L 145.70 248.74 L 145.23 249.33 L 144.67 250.13 L 144.46 250.36 L 143.91 251.38 L 143.65 251.68 L 143.12 252.41 L 142.62 253.06 L 142.30 253.43 L 141.78 254.46 L 141.60 254.67 L 141.06 255.49 L 140.57 256.18 L 140.29 256.51 L 139.77 257.54 L 139.54 257.79 L 139.02 258.57 L 138.52 259.29 L 138.26 259.59 L 137.76 260.62 L 137.49 260.93 L 136.99 261.64 L 136.46 262.43 L 136.26 262.67 L 135.80 263.70 L 135.44 264.15 L 135.02 264.72 L 134.50 265.75 L 134.41 265.85 L 133.87 266.77 L 133.39 267.49 L 133.13 267.80 L 132.69 268.83 L 132.36 269.24 L 131.92 269.85 L 131.37 270.88 L 131.33 270.92 L 130.78 271.90 L 130.31 272.66 L 130.09 272.93 L 129.67 273.96 L 129.28 274.53 L 128.95 274.98 L 128.55 276.01 L 128.26 276.39 L 127.83 277.03 L 127.38 278.06 L 127.23 278.24 L 126.74 279.09 L 126.20 280.06 L 126.16 280.11 L 125.66 281.14 L 125.18 282.03 L 125.07 282.16 L 124.63 283.19 L 124.15 284.06 L 124.02 284.22 L 123.59 285.24 L 123.13 286.09 L 122.98 286.27 L 122.56 287.29 L 122.10 288.11 L 121.93 288.32 L 121.53 289.35 L 121.07 290.23 L 120.96 290.37 L 120.56 291.40 L 120.11 292.42 L 120.05 292.51 L 119.59 293.45 L 119.24 294.48 L 119.02 294.78 L 118.63 295.50 L 118.31 296.53 L 118.00 297.04 L 117.67 297.56 L 117.39 298.58 L 116.97 299.47 L 116.87 299.61 L 116.49 300.63 L 116.18 301.66 L 115.94 302.04 L 115.60 302.69 L 115.34 303.71 L 114.92 304.61 L 114.83 304.74 L 114.44 305.76 L 114.14 306.79 L 113.89 307.26 L 113.61 307.82 L 113.36 308.84 L 113.08 309.87 L 112.87 310.26 L 112.56 310.89 L 112.32 311.92 L 112.01 312.95 L 111.84 313.25 L 111.51 313.97 L 111.28 315.00 L 111.01 316.02 L 110.81 316.45 L 110.56 317.05 L 110.33 318.08 L 110.14 319.10 L 109.79 320.04 L 109.74 320.13 L 109.39 321.15 L 109.22 322.18 L 108.95 323.21 L 108.76 323.69 L 108.55 324.23 L 108.33 325.26 L 108.20 326.28 L 108.01 327.31 L 107.74 328.15 L 107.66 328.34 L 107.38 329.36 L 107.22 330.39 L 107.07 331.41 L 106.86 332.44 L 106.71 332.98 L 106.57 333.47 L 106.37 334.49 L 106.24 335.52 L 106.15 336.55 L 106.03 337.57 L 105.83 338.60 L 105.68 339.11 L 105.54 339.62 L 105.38 340.65 L 105.29 341.68 L 105.22 342.70 L 105.16 343.73 L 105.10 344.75 L 105.03 345.78 L 104.92 346.81 L 104.81 347.83 L 104.72 348.86 L 104.66 349.73 L 104.65 349.88 L 104.57 350.91 L 104.51 351.94 L 104.45 352.96 L 104.41 353.99 L 104.36 355.01 L 104.34 356.04 L 104.37 357.07 L 104.40 358.09 L 104.44 359.12 L 104.48 360.14 L 104.52 361.17 L 104.56 362.20 L 104.61 363.22 L 104.66 363.49 L 104.77 364.25 L 104.90 365.27 L 105.01 366.30 L 105.08 367.33 L 105.14 368.35 L 105.20 369.38 L 105.25 370.40 L 105.36 371.43 L 105.58 372.46 L 105.68 372.80 L 105.87 373.48 L 106.05 374.51 L 106.17 375.54 L 106.26 376.56 L 106.41 377.59 L 106.66 378.61 L 106.71 378.73 L 107.01 379.64 L 107.19 380.67 L 107.34 381.69 L 107.59 382.72 L 107.74 383.06 L 107.98 383.74 L 108.19 384.77 L 108.37 385.80 L 108.76 386.82 L 108.77 386.82 L 109.15 387.85 L 109.34 388.87 L 109.65 389.90 L 109.79 390.17 L 110.11 390.93 L 110.35 391.95 L 110.73 392.98 L 110.81 393.10 L 111.22 394.00 L 111.45 395.03 L 111.84 395.87 L 111.96 396.06 L 112.32 397.08 L 112.65 398.11 L 112.87 398.42 L 113.25 399.13 L 113.55 400.16 L 113.89 400.75 L 114.17 401.19 L 114.48 402.21 L 114.92 403.07 L 115.05 403.24 L 115.48 404.26 L 115.94 405.13 L 116.07 405.29 L 116.51 406.32 L 116.97 407.15 L 117.13 407.34 L 117.55 408.37 L 118.00 409.15 L 118.19 409.39 L 118.63 410.42 L 119.02 410.97 L 119.38 411.45 L 119.81 412.47 L 120.05 412.76 L 120.52 413.50 L 121.07 414.50 L 121.10 414.53 L 121.65 415.55 L 122.10 416.16 L 122.44 416.58 L 122.97 417.60 L 123.13 417.77 L 123.68 418.63 L 124.15 419.28 L 124.47 419.66 L 124.98 420.68 L 125.18 420.90 L 125.73 421.71 L 126.20 422.31 L 126.57 422.73 L 127.23 423.74 L 127.25 423.76 L 127.91 424.79 L 128.26 425.18 L 128.75 425.81 L 129.28 426.51 L 129.58 426.84 L 130.25 427.86 L 130.31 427.92 L 131.02 428.89 L 131.33 429.23 L 131.90 429.92 L 132.36 430.44 L 132.80 430.94 L 133.39 431.65 L 133.68 431.97 L 134.41 432.97 L 134.44 432.99 L 135.24 434.02 L 135.44 434.22 L 136.15 435.05 L 136.46 435.38 L 137.09 436.07 L 137.49 436.50 L 138.03 437.10 L 138.52 437.62 L 138.98 438.12 L 139.54 438.74 L 139.94 439.15 L 140.57 439.80 L 140.94 440.18 L 141.60 440.85 L 141.94 441.20 L 142.62 441.90 L 142.94 442.23 L 143.65 442.96 L 143.94 443.25 L 144.67 444.01 L 144.94 444.28 L 145.70 445.03 L 145.98 445.31 L 146.73 446.01 L 147.05 446.33 L 147.75 446.99 L 148.13 447.36 L 148.78 447.98 L 149.19 448.38 L 149.80 448.97 L 150.26 449.41 L 150.83 449.96 L 151.33 450.44 L 151.86 450.92 L 152.45 451.46 L 152.88 451.86 L 153.60 452.49 L 153.91 452.79 L 154.78 453.52 L 154.93 453.67 L 155.96 454.48 L 156.02 454.54 L 156.99 455.33 L 157.24 455.57 L 158.01 456.21 L 158.44 456.59 L 159.04 457.11 L 159.64 457.62 L 160.06 458.01 L 160.87 458.65 L 161.09 458.86 L 162.12 459.57 L 162.22 459.67 L 163.14 460.37 L 163.49 460.70 L 164.17 461.24 L 164.76 461.72 L 165.19 462.11 L 166.10 462.75 L 166.22 462.87 L 167.25 463.54 L 167.50 463.78 L 168.27 464.35 L 168.80 464.80 L 169.30 465.22 L 170.11 465.83 L 170.32 466.03 L 171.35 466.64 L 171.58 466.85 L 172.38 467.41 L 172.97 467.88 L 173.40 468.25 L 174.43 468.84 L 174.50 468.91 L 175.45 469.55 L 175.90 469.93 L 176.48 470.39 L 177.29 470.96 L 177.51 471.16 L 177.86 470.96 L 177.99 469.93 L 177.73 468.91 L 177.51 468.46 L 177.24 467.88 L 177.00 466.85 L 176.77 465.83 L 176.48 465.08 L 176.35 464.80 L 176.10 463.78 L 175.96 462.75 L 175.80 461.72 L 175.52 460.70 L 175.45 460.54 L 175.17 459.67 L 175.01 458.65 L 174.94 457.62 L 174.85 456.59 L 174.74 455.57 L 174.57 454.54 L 174.43 453.94 L 174.32 453.52 L 174.19 452.49 L 174.14 451.46 L 174.09 450.44 L 174.05 449.41 L 174.02 448.38 L 173.99 447.36 L 173.99 446.33 L 174.03 445.31 L 174.06 444.28 L 174.09 443.25 L 174.13 442.23 L 174.20 441.20 L 174.39 440.18 L 174.43 440.03 L 174.61 439.15 L 174.76 438.12 L 174.86 437.10 L 174.94 436.07 L 175.06 435.05 L 175.30 434.02 L 175.45 433.58 L 175.66 432.99 L 175.87 431.97 L 176.00 430.94 L 176.21 429.92 L 176.48 429.31 L 176.68 428.89 L 176.95 427.86 L 177.15 426.84 L 177.51 425.92 L 177.57 425.81 L 177.95 424.79 L 178.21 423.76 L 178.53 423.16 L 178.78 422.73 L 179.07 421.71 L 179.44 420.68 L 179.56 420.53 L 180.01 419.66 L 180.37 418.63 L 180.59 418.34 L 181.00 417.60 L 181.33 416.58 L 181.61 416.19 L 182.00 415.55 L 182.42 414.53 L 182.64 414.26 L 183.10 413.50 L 183.61 412.47 L 183.66 412.42 L 184.20 411.45 L 184.69 410.72 L 184.95 410.42 L 185.44 409.39 L 185.72 409.07 L 186.21 408.37 L 186.74 407.53 L 186.91 407.34 L 187.47 406.32 L 187.77 405.99 L 188.30 405.29 L 188.79 404.66 L 189.14 404.26 L 189.77 403.24 L 189.82 403.19 L 190.53 402.21 L 190.85 401.87 L 191.40 401.19 L 191.87 400.65 L 192.30 400.16 L 192.90 399.43 L 193.18 399.13 L 193.92 398.26 L 194.08 398.11 L 194.87 397.08 L 194.95 397.00 L 195.74 396.06 L 195.98 395.81 L 196.69 395.03 L 197.00 394.72 L 197.72 394.00 L 198.03 393.69 L 198.70 392.98 L 199.05 392.62 L 199.71 391.95 L 200.08 391.57 L 200.70 390.93 L 201.11 390.50 L 201.68 389.90 L 202.13 389.43 L 202.67 388.87 L 203.16 388.37 L 203.64 387.85 L 204.18 387.22 L 204.55 386.82 L 205.21 385.98 L 205.39 385.80 L 206.11 384.77 L 206.24 384.64 L 206.91 383.74 L 207.26 383.35 L 207.76 382.72 L 208.29 382.00 L 208.56 381.69 L 209.14 380.67 L 209.31 380.48 L 209.90 379.64 L 210.34 379.06 L 210.70 378.61 L 211.20 377.59 L 211.37 377.39 L 211.90 376.56 L 212.39 375.82 L 212.64 375.54 L 213.10 374.51 L 213.42 374.08 L 213.82 373.48 L 214.23 372.46 L 214.44 372.19 L 214.90 371.43 L 215.37 370.40 L 215.47 370.29 L 215.97 369.38 L 216.43 368.35 L 216.50 368.27 L 216.97 367.33 L 217.37 366.30 L 217.52 366.11 L 217.97 365.27 L 218.32 364.25 L 218.55 363.90 L 218.92 363.22 L 219.19 362.20 L 219.58 361.42 L 219.74 361.17 L 220.09 360.14 L 220.45 359.12 L 220.60 358.89 L 220.99 358.09 L 221.22 357.07 L 221.63 356.06 L 221.64 356.04 L 222.05 355.01 L 222.27 353.99 L 222.65 353.12 L 222.75 352.96 L 223.10 351.94 L 223.28 350.91 L 223.64 349.88 L 223.68 349.82 L 224.04 348.86 L 224.23 347.83 L 224.49 346.81 L 224.71 346.31 L 224.94 345.78 L 225.16 344.75 L 225.31 343.73 L 225.56 342.70 L 225.73 342.28 L 225.96 341.68 L 226.19 340.65 L 226.33 339.62 L 226.52 338.60 L 226.76 337.87 L 226.87 337.57 L 227.11 336.55 L 227.25 335.52 L 227.38 334.49 L 227.58 333.47 L 227.78 332.83 L 227.92 332.44 L 228.12 331.41 L 228.25 330.39 L 228.34 329.36 L 228.46 328.34 L 228.64 327.31 L 228.81 326.71 L 228.93 326.28 L 229.13 325.26 L 229.24 324.23 L 229.31 323.21 L 229.39 322.18 L 229.48 321.15 L 229.61 320.13 L 229.82 319.10 L 229.84 319.02 L 230.02 318.08 L 230.14 317.05 L 230.22 316.02 L 230.29 315.00 L 230.34 313.97 L 230.39 312.95 L 230.46 311.92 L 230.54 310.89 L 230.63 309.87 L 230.71 308.84 L 230.80 307.82 L 230.86 307.33 L 230.93 306.79 L 231.02 305.76 L 231.10 304.74 L 231.17 303.71 L 231.23 302.69 L 231.26 301.66 L 231.28 300.63 L 231.31 299.61 L 231.33 298.58 L 231.35 297.56 L 231.36 296.53 L 231.38 295.50 L 231.40 294.48 L 231.43 293.45 L 231.51 292.42 L 231.78 291.40 L 231.89 291.21 L 232.25 290.37 L 232.55 289.35 L 232.91 288.86 L 233.32 288.32 L 233.94 287.50 L 234.13 287.29 L 234.97 286.48 L 235.18 286.27 L 235.99 285.67 L 236.60 285.24 L 237.02 284.92 L 238.04 284.62 L 239.07 284.24 L 239.12 284.22 L 240.10 283.91 L 241.12 283.81 L 242.15 283.82 L 243.17 283.89 L 244.20 284.17 L 244.28 284.22 L 245.23 284.59 L 246.25 284.87 L 246.78 285.24 L 247.28 285.61 L 248.24 286.27 L 248.30 286.33 L 249.32 287.29 L 249.33 287.31 L 250.10 288.32 L 250.36 288.59 L 250.95 289.35 L 251.38 289.85 L 251.83 290.37 L 252.41 291.09 L 252.69 291.40 L 253.36 292.42 L 253.43 292.50 L 254.14 293.45 L 254.46 293.81 L 254.99 294.48 L 255.49 295.10 L 255.84 295.50 L 256.50 296.53 L 256.51 296.54 L 257.20 297.56 L 257.54 297.95 L 258.02 298.58 L 258.57 299.27 L 258.87 299.61 L 259.46 300.63 L 259.59 300.78 L 260.20 301.66 L 260.62 302.18 L 261.03 302.69 L 261.64 303.67 L 261.68 303.71 L 262.29 304.74 L 262.67 305.20 L 263.11 305.76 L 263.70 306.66 L 263.81 306.79 L 264.38 307.82 L 264.72 308.22 L 265.18 308.84 L 265.75 309.78 L 265.83 309.87 L 266.38 310.89 L 266.77 311.41 L 267.16 311.92 L 267.69 312.95 L 267.80 313.06 L 268.36 313.97 L 268.83 314.64 L 269.12 315.00 L 269.57 316.02 L 269.85 316.38 L 270.30 317.05 L 270.82 318.08 L 270.88 318.14 L 271.42 319.10 L 271.90 319.87 L 272.12 320.13 L 272.57 321.15 L 272.93 321.65 L 273.30 322.18 L 273.69 323.21 L 273.96 323.54 L 274.38 324.23 L 274.80 325.26 L 274.98 325.48 L 275.46 326.28 L 275.92 327.31 L 276.01 327.42 L 276.51 328.34 L 277.03 329.36 L 277.03 329.37 L 277.54 330.39 L 277.98 331.41 L 278.06 331.51 L 278.54 332.44 L 278.94 333.47 L 279.09 333.66 L 279.54 334.49 L 279.90 335.52 L 280.11 335.81 L 280.51 336.55 L 280.79 337.57 L 281.14 338.18 L 281.40 338.60 L 281.71 339.62 L 282.16 340.59 L 282.21 340.65 L 282.65 341.68 L 282.98 342.70 L 283.19 343.05 L 283.54 343.73 L 283.78 344.75 L 284.21 345.78 L 284.22 345.78 L 284.66 346.81 L 284.90 347.83 L 285.24 348.53 L 285.44 348.86 L 285.74 349.88 L 285.97 350.91 L 286.27 351.58 L 286.46 351.94 L 286.75 352.96 L 286.95 353.99 L 287.29 354.78 L 287.42 355.01 L 287.74 356.04 L 287.91 357.07 L 288.20 358.09 L 288.32 358.36 L 288.61 359.12 L 288.81 360.14 L 288.99 361.17 L 289.34 362.20 L 289.35 362.20 L 289.68 363.22 L 289.83 364.25 L 289.96 365.27 L 290.17 366.30 L 290.37 366.90 L 290.53 367.33 L 290.76 368.35 L 290.89 369.38 L 290.99 370.40 L 291.13 371.43 L 291.36 372.46 L 291.40 372.57 L 291.62 373.48 L 291.78 374.51 L 291.89 375.54 L 291.95 376.56 L 292.02 377.59 L 292.11 378.61 L 292.22 379.64 L 292.38 380.67 L 292.42 380.88 L 292.57 381.69 L 292.68 382.72 L 292.73 383.74 L 292.77 384.77 L 292.81 385.80 L 292.84 386.82 L 292.87 387.85 L 292.90 388.87 L 292.89 389.90 L 292.89 390.93 L 292.88 391.95 L 292.95 392.98 L 293.45 393.86 L 293.89 392.98 L 294.18 391.95 L 294.48 391.40 L 294.74 390.93 L 295.02 389.90 L 295.35 388.87 L 295.50 388.62 L 295.86 387.85 L 296.07 386.82 L 296.36 385.80 L 296.53 385.47 L 296.84 384.77 L 297.05 383.74 L 297.24 382.72 L 297.56 381.89 L 297.65 381.69 L 297.96 380.67 L 298.12 379.64 L 298.43 378.61 L 298.58 378.40 L 298.99 377.59 L 299.43 376.56 L 299.61 376.37 L 300.20 375.54 L 300.63 375.08 L 301.21 374.51 L 301.66 374.09 L 302.54 373.48 L 302.69 373.35 L 303.71 372.90 L 304.66 372.46 L 304.74 372.40 L 305.76 372.05 L 306.79 371.94 L 307.82 371.89 L 308.84 371.91 L 309.87 371.97 L 310.89 372.14 L 311.57 372.46 L 311.92 372.65 L 312.95 373.02 L 313.63 373.48 L 313.97 373.77 L 315.00 374.50 L 315.01 374.51 L 315.95 375.54 L 316.02 375.61 L 316.67 376.56 L 317.05 377.09 L 317.41 377.59 L 317.73 378.61 L 318.08 379.20 L 318.36 379.64 L 318.68 380.67 L 319.10 381.47 L 319.27 381.69 L 319.64 382.72 L 320.13 383.74 L 320.13 383.74 L 320.60 384.77 L 320.89 385.80 L 321.15 386.24 L 321.48 386.82 L 321.75 387.85 L 322.18 388.77 L 322.26 388.87 L 322.66 389.90 L 322.94 390.93 L 323.21 391.43 L 323.48 391.95 L 323.74 392.98 L 324.06 394.00 L 324.23 394.30 L 324.58 395.03 L 324.81 396.06 L 325.17 397.08 L 325.26 397.23 L 325.61 398.11 L 325.81 399.13 L 326.09 400.16 L 326.28 400.54 L 326.57 401.19 L 326.80 402.21 L 327.02 403.24 L 327.31 404.01 L 327.43 404.26 L 327.72 405.29 L 327.87 406.32 L 328.09 407.34 L 328.34 407.96 L 328.51 408.37 L 328.77 409.39 L 328.89 410.42 L 329.06 411.45 L 329.36 412.46 L 329.37 412.47 L 329.67 413.50 L 329.83 414.53 L 329.95 415.55 L 330.10 416.58 L 330.32 417.60 L 330.39 417.84 L 330.60 418.63 L 330.76 419.66 L 330.88 420.68 L 330.97 421.71 L 331.06 422.73 L 331.17 423.76 L 331.33 424.79 L 331.41 425.19 L 331.54 425.81 L 331.69 426.84 L 331.79 427.86 L 331.84 428.89 L 331.88 429.92 L 331.92 430.94 L 331.95 431.97 L 331.99 432.99 L 332.02 434.02 L 332.03 435.05 L 332.04 436.07 L 332.05 437.10 L 332.06 438.12 L 332.07 439.15 L 332.07 440.18 L 332.04 441.20 L 332.01 442.23 L 331.98 443.25 L 331.96 444.28 L 331.93 445.31 L 331.90 446.33 L 331.85 447.36 L 331.78 448.38 L 331.69 449.41 L 331.57 450.44 L 331.41 451.44 L 331.41 451.46 L 331.22 452.49 L 331.06 453.52 L 330.95 454.54 L 330.87 455.57 L 330.77 456.59 L 330.62 457.62 L 330.39 458.46 L 330.32 458.65 L 330.06 459.67 L 329.91 460.70 L 329.79 461.72 L 329.61 462.75 L 329.36 463.56 L 329.28 463.78 L 328.99 464.80 L 328.83 465.83 L 328.64 466.85 L 328.34 467.67 L 328.24 467.88 L 327.95 468.91 L 327.78 469.93 L 327.51 470.96 L 327.31 471.37 L 327.03 471.98 L 326.80 473.01 L 326.57 474.04 L 327.31 474.66 L 328.33 474.04 Z" fill="currentColor" fill-rule="evenodd"/>
</svg>